<svg width="150" height="108" viewBox="0 0 150 108" fill="none" xmlns="http://www.w3.org/2000/svg">
<path d="M56.8993 51.2057C56.5704 41.4063 56.8993 23.4158 60.2154 13.7119" stroke="#297935" stroke-width="3.27998" stroke-linecap="round"/>
<path d="M58.6388 18.895C57.3418 20.563 52.4147 20.0721 49.0777 16.2431" stroke="#297935" stroke-width="3.27998" stroke-linecap="round"/>
<path d="M40.9846 10.6253C44.5091 9.24851 51.7334 8.84454 52.4349 18.2431C49.3165 18.875 42.6607 18.2362 40.9846 10.6253Z" fill="#2A943A" stroke="#2A943A" stroke-width="0.485924" stroke-linecap="round"/>
<path d="M50.0873 16.998C48.9551 14.9808 46.7178 12.424 43.295 11.5663" stroke="#252424" stroke-width="0.485924" stroke-linecap="round"/>
<path d="M56.9256 34.084C55.6286 35.752 50.7014 35.261 47.3644 31.4321" stroke="#297935" stroke-width="3.27998" stroke-linecap="round"/>
<path d="M39.2711 25.8138C42.7956 24.437 50.0199 24.033 50.7214 33.4315C47.603 34.0635 40.9472 33.4247 39.2711 25.8138Z" fill="#2A943A" stroke="#2A943A" stroke-width="0.485924" stroke-linecap="round"/>
<path d="M48.3738 32.186C47.2416 30.1688 45.0043 27.612 41.5815 26.7543" stroke="#252424" stroke-width="0.485924" stroke-linecap="round"/>
<path d="M57.52 42.5225C58.817 44.1905 63.7441 43.6995 67.0811 39.8706" stroke="#297935" stroke-width="3.27998" stroke-linecap="round"/>
<path d="M75.1744 34.2523C71.65 32.8755 64.4257 32.4715 63.7241 41.87C66.8425 42.502 73.4983 41.8632 75.1744 34.2523Z" fill="#2A943A" stroke="#2A943A" stroke-width="0.485924" stroke-linecap="round"/>
<path d="M66.0719 40.6245C67.2041 38.6073 69.4414 36.0505 72.8642 35.1927" stroke="#252424" stroke-width="0.485924" stroke-linecap="round"/>
<path d="M58.3767 26.4897C59.6737 28.1578 64.6008 27.6668 67.9378 23.8378" stroke="#297935" stroke-width="3.27998" stroke-linecap="round"/>
<path d="M76.0311 18.2205C72.5066 16.8437 65.2823 16.4398 64.5807 25.8383C67.6991 26.4702 74.355 25.8314 76.0311 18.2205Z" fill="#2A943A" stroke="#2A943A" stroke-width="0.485924" stroke-linecap="round"/>
<path d="M66.9283 24.5918C68.0606 22.5746 70.2978 20.0178 73.7207 19.16" stroke="#252424" stroke-width="0.485924" stroke-linecap="round"/>
<path d="M68.9965 2.64129C64.3263 2.51006 55.7882 5.04112 58.9975 16.2152C62.8788 15.6526 70.3125 12.15 68.9965 2.64129Z" fill="#2A943A" stroke="#2A943A" stroke-width="0.59878" stroke-linecap="round"/>
<path d="M60.4992 12.9736C61.3619 10.3484 63.398 6.84052 67.2214 5.06246" stroke="#252424" stroke-width="0.581711" stroke-linecap="round"/>
<path d="M120.236 51.2057C119.907 41.4063 120.236 23.4158 123.552 13.7119" stroke="#297935" stroke-width="3.27998" stroke-linecap="round"/>
<path d="M121.975 18.895C120.678 20.563 115.751 20.0721 112.414 16.2431" stroke="#297935" stroke-width="3.27998" stroke-linecap="round"/>
<path d="M104.321 10.6253C107.846 9.24851 115.07 8.84454 115.771 18.2431C112.653 18.875 105.997 18.2362 104.321 10.6253Z" fill="#2A943A" stroke="#2A943A" stroke-width="0.485924" stroke-linecap="round"/>
<path d="M113.424 16.998C112.292 14.9808 110.054 12.424 106.632 11.5663" stroke="#252424" stroke-width="0.485924" stroke-linecap="round"/>
<path d="M120.262 34.084C118.965 35.752 114.038 35.261 110.701 31.4321" stroke="#297935" stroke-width="3.27998" stroke-linecap="round"/>
<path d="M102.608 25.8138C106.132 24.437 113.356 24.033 114.058 33.4315C110.94 34.0635 104.284 33.4247 102.608 25.8138Z" fill="#2A943A" stroke="#2A943A" stroke-width="0.485924" stroke-linecap="round"/>
<path d="M111.71 32.186C110.578 30.1688 108.341 27.612 104.918 26.7543" stroke="#252424" stroke-width="0.485924" stroke-linecap="round"/>
<path d="M120.857 42.5225C122.154 44.1905 127.081 43.6995 130.418 39.8706" stroke="#297935" stroke-width="3.27998" stroke-linecap="round"/>
<path d="M138.511 34.2523C134.987 32.8755 127.762 32.4715 127.061 41.87C130.179 42.502 136.835 41.8632 138.511 34.2523Z" fill="#2A943A" stroke="#2A943A" stroke-width="0.485924" stroke-linecap="round"/>
<path d="M129.408 40.6245C130.541 38.6073 132.778 36.0505 136.201 35.1927" stroke="#252424" stroke-width="0.485924" stroke-linecap="round"/>
<path d="M121.713 26.4897C123.01 28.1578 127.937 27.6668 131.274 23.8378" stroke="#297935" stroke-width="3.27998" stroke-linecap="round"/>
<path d="M139.368 18.2205C135.843 16.8437 128.619 16.4398 127.917 25.8383C131.036 26.4702 137.692 25.8314 139.368 18.2205Z" fill="#2A943A" stroke="#2A943A" stroke-width="0.485924" stroke-linecap="round"/>
<path d="M130.265 24.5918C131.397 22.5746 133.634 20.0178 137.057 19.16" stroke="#252424" stroke-width="0.485924" stroke-linecap="round"/>
<path d="M132.333 2.64129C127.663 2.51006 119.125 5.04112 122.334 16.2152C126.215 15.6526 133.649 12.15 132.333 2.64129Z" fill="#2A943A" stroke="#2A943A" stroke-width="0.59878" stroke-linecap="round"/>
<path d="M123.836 12.9736C124.698 10.3484 126.735 6.84052 130.558 5.06246" stroke="#252424" stroke-width="0.581711" stroke-linecap="round"/>
<path d="M96.8249 49.2887C96.9045 46.8854 96.8249 42.4732 96.022 40.0933" stroke="#297935" stroke-width="2.03339" stroke-linecap="round"/>
<path d="M94.8399 32.813C92.5697 32.813 92.2724 35.5094 92.4076 36.8576C90.4617 37.1812 89.7051 38.6103 89.57 39.2844C89.2457 40.9023 91.3266 42.1157 92.4076 42.5201C92.0833 43.1673 92.2933 44.2777 92.8129 44.5424C94.4007 45.3514 95.7857 44.4076 96.4613 43.7335C98.0829 45.0278 99.299 44.5424 99.7044 44.138C101.326 42.9246 100.785 41.4416 100.11 40.4978C101.731 38.5564 101.596 36.9925 101.326 36.4532C101.002 35.4825 98.7585 35.5094 97.6775 35.6442C96.7046 33.3792 95.3804 32.813 94.8399 32.813Z" fill="#A7916E"/>
<path d="M95.8395 37.6665C95.2236 37.6665 95.143 38.398 95.1797 38.7637C94.6518 38.8515 94.4465 39.2392 94.4099 39.422C94.3219 39.8609 94.8864 40.1901 95.1797 40.2998C95.0917 40.4753 95.1487 40.7766 95.2896 40.8484C95.7203 41.0678 96.0961 40.8118 96.2793 40.629C96.7192 40.9801 97.0491 40.8484 97.1591 40.7387C97.599 40.4095 97.4524 40.0072 97.2691 39.7512C97.7089 39.2245 97.6723 38.8003 97.599 38.654C97.511 38.3907 96.9025 38.398 96.6092 38.4345C96.3453 37.8201 95.9861 37.6665 95.8395 37.6665Z" fill="#FCEACC"/>
<path d="M33.4883 49.797C33.5679 47.3937 33.4883 42.9815 32.6854 40.6016" stroke="#297935" stroke-width="2.03339" stroke-linecap="round"/>
<path d="M31.5033 33.3218C29.2332 33.3218 28.9359 36.0182 29.071 37.3664C27.1252 37.69 26.3685 39.1191 26.2334 39.7932C25.9091 41.4111 27.99 42.6245 29.071 43.0289C28.7468 43.6761 28.9567 44.7865 29.4763 45.0512C31.0642 45.8602 32.4491 44.9164 33.1248 44.2423C34.7463 45.5366 35.9625 45.0512 36.3679 44.6468C37.9894 43.4334 37.4489 41.9503 36.7733 41.0066C38.3948 39.0652 38.2597 37.5012 37.9894 36.962C37.6651 35.9912 35.422 36.0182 34.3409 36.153C33.368 33.888 32.0438 33.3218 31.5033 33.3218Z" fill="#A7916E"/>
<path d="M32.5029 38.1753C31.8871 38.1753 31.8065 38.9068 31.8431 39.2725C31.3153 39.3603 31.11 39.748 31.0734 39.9308C30.9854 40.3697 31.5499 40.6989 31.8431 40.8086C31.7552 40.9841 31.8121 41.2854 31.9531 41.3572C32.3838 41.5766 32.7595 41.3206 32.9428 41.1377C33.3827 41.4888 33.7126 41.3572 33.8225 41.2475C34.2624 40.9183 34.1158 40.516 33.9325 40.26C34.3724 39.7333 34.3357 39.3091 34.2624 39.1628C34.1745 38.8994 33.566 38.9068 33.2727 38.9433C33.0088 38.3289 32.6495 38.1753 32.5029 38.1753Z" fill="#FCEACC"/>
<path d="M44.1347 49.8809C44.1889 48.2445 44.1347 45.2405 43.5881 43.6201" stroke="#297935" stroke-width="1.38444" stroke-linecap="round"/>
<path d="M42.7832 38.6631C41.2376 38.6631 41.0352 40.499 41.1272 41.4169C39.8024 41.6372 39.2872 42.6102 39.1952 43.0692C38.9744 44.1707 40.3912 44.9968 41.1272 45.2722C40.9064 45.7128 41.0494 46.4689 41.4031 46.6491C42.4842 47.1999 43.4272 46.5573 43.8872 46.0984C44.9912 46.9796 45.8193 46.6491 46.0953 46.3737C47.1993 45.5476 46.8313 44.5379 46.3713 43.8953C47.4753 42.5735 47.3833 41.5087 47.1993 41.1415C46.9785 40.4806 45.4513 40.499 44.7152 40.5908C44.0528 39.0486 43.1512 38.6631 42.7832 38.6631Z" fill="#A7916E"/>
<path d="M43.4637 41.9678C43.0444 41.9678 42.9895 42.4658 43.0145 42.7148C42.6551 42.7746 42.5153 43.0385 42.4904 43.163C42.4305 43.4618 42.8148 43.686 43.0145 43.7607C42.9546 43.8802 42.9934 44.0853 43.0893 44.1342C43.3826 44.2836 43.6384 44.1093 43.7632 43.9848C44.0627 44.2238 44.2873 44.1342 44.3622 44.0595C44.6617 43.8354 44.5619 43.5614 44.4371 43.3871C44.7366 43.0286 44.7116 42.7397 44.6617 42.6401C44.6018 42.4608 44.1875 42.4658 43.9878 42.4907C43.8081 42.0724 43.5636 41.9678 43.4637 41.9678Z" fill="#FCEACC"/>
<path d="M85.596 49.3721C85.6502 47.7358 85.596 44.7317 85.0493 43.1113" stroke="#297935" stroke-width="1.38444" stroke-linecap="round"/>
<path d="M84.2445 38.1543C82.6988 38.1543 82.4964 39.9902 82.5884 40.9081C81.2636 41.1284 80.7484 42.1014 80.6565 42.5604C80.4357 43.6619 81.8524 44.4881 82.5884 44.7634C82.3677 45.204 82.5106 45.9601 82.8644 46.1403C83.9455 46.6911 84.8884 46.0485 85.3485 45.5896C86.4525 46.4708 87.2805 46.1403 87.5565 45.865C88.6606 45.0388 88.2925 44.0291 87.8325 43.3865C88.9366 42.0647 88.8446 40.9999 88.6606 40.6327C88.4397 39.9718 86.9125 39.9902 86.1765 40.082C85.5141 38.5398 84.6125 38.1543 84.2445 38.1543Z" fill="#A7916E"/>
<path d="M84.925 41.459C84.5057 41.459 84.4508 41.957 84.4758 42.206C84.1164 42.2658 83.9767 42.5297 83.9517 42.6542C83.8918 42.9531 84.2761 43.1772 84.4758 43.2519C84.4159 43.3714 84.4547 43.5765 84.5507 43.6254C84.8439 43.7748 85.0997 43.6005 85.2245 43.476C85.524 43.715 85.7486 43.6254 85.8235 43.5507C86.123 43.3266 86.0232 43.0527 85.8984 42.8783C86.1979 42.5198 86.1729 42.2309 86.123 42.1313C86.0631 41.952 85.6488 41.957 85.4491 41.9819C85.2694 41.5636 85.0249 41.459 84.925 41.459Z" fill="#FCEACC"/>
<rect x="12.9727" y="47.5659" width="123.875" height="33.576" rx="16.788" fill="#6F362E"/>
<rect y="61.5557" width="149.82" height="12.4638" rx="2.03491" fill="#CE6C49"/>
<path d="M18.4147 106.667L9.35578 74.3633C9.12833 73.5522 9.73799 72.748 10.5804 72.748H140.497C141.344 72.748 141.954 73.5602 141.719 74.3737L132.363 106.678C132.205 107.222 131.707 107.596 131.141 107.596H19.6393C19.0691 107.596 18.5686 107.216 18.4147 106.667Z" fill="#D47951"/>
</svg>
