<svg width="59" height="107" viewBox="0 0 59 107" fill="none" xmlns="http://www.w3.org/2000/svg">
<path d="M8.47609 100.997L2.87976 72.9207C2.70552 72.0465 3.37418 71.2314 4.26554 71.2313L56.0658 71.2266L51.7171 100.9C51.6497 101.359 51.357 101.76 50.9376 101.959C32.9231 110.525 15.7496 105.573 9.14236 101.925C8.79173 101.731 8.55439 101.389 8.47609 100.997Z" fill="url(#paint0_linear_495_3107)"/>
<path d="M29.5 79.5282C37.5163 79.5282 44.7802 78.9307 50.0458 77.9623C52.6766 77.4785 54.8212 76.8998 56.3141 76.2506C57.0596 75.9264 57.6569 75.5787 58.0717 75.2058C58.4857 74.8337 58.7447 74.4113 58.7447 73.9428C58.7447 73.4744 58.4857 73.0519 58.0717 72.6798C57.6569 72.3069 57.0596 71.9592 56.3141 71.635C54.8212 70.9858 52.6766 70.4072 50.0458 69.9233C44.7802 68.9549 37.5163 68.3575 29.5 68.3575C21.4837 68.3575 14.2198 68.9549 8.95415 69.9233C6.32341 70.4072 4.17878 70.9858 2.68585 71.635C1.94033 71.9592 1.34307 72.3069 0.928234 72.6798C0.514221 73.0519 0.255227 73.4744 0.255227 73.9428C0.255227 74.4113 0.514221 74.8337 0.928234 75.2058C1.34307 75.5787 1.94033 75.9264 2.68585 76.2506C4.17878 76.8998 6.32341 77.4785 8.95415 77.9623C14.2198 78.9307 21.4837 79.5282 29.5 79.5282Z" fill="#CE6C49" stroke="#CE6C49" stroke-width="0.506757"/>
<rect y="66.5796" width="59" height="7.6171" fill="#CE6C49"/>
<path d="M29.5 72.4188C37.5163 72.4188 44.7802 71.8213 50.0458 70.8529C52.6766 70.3691 54.8212 69.7904 56.3141 69.1412C57.0596 68.8171 57.6569 68.4693 58.0717 68.0965C58.4857 67.7244 58.7447 67.3019 58.7447 66.8334C58.7447 66.365 58.4857 65.9425 58.0717 65.5704C57.6569 65.1976 57.0596 64.8498 56.3141 64.5256C54.8212 63.8765 52.6766 63.2978 50.0458 62.814C44.7802 61.8455 37.5163 61.2481 29.5 61.2481C21.4837 61.2481 14.2198 61.8455 8.95415 62.814C6.32341 63.2978 4.17878 63.8765 2.68585 64.5256C1.94033 64.8498 1.34307 65.1976 0.928234 65.5704C0.514221 65.9425 0.255227 66.365 0.255227 66.8334C0.255227 67.3019 0.514221 67.7244 0.928234 68.0965C1.34307 68.4693 1.94033 68.8171 2.68585 69.1412C4.17878 69.7904 6.32341 70.3691 8.95415 70.8529C14.2198 71.8213 21.4837 72.4188 29.5 72.4188Z" fill="#E18259" stroke="#E18259" stroke-width="0.506757"/>
<path d="M53.4052 65.0759C50.8357 67.6026 42.2761 68.6107 28.9236 68.6107C15.1216 68.6107 6.26686 66.9156 5.08623 65.0759C6.26686 63.1369 15.7586 59.4702 28.9236 59.4702C42.0886 59.4702 50.8357 62.4499 53.4052 65.0759Z" fill="#6F362E"/>
<ellipse cx="20.3449" cy="89.4306" rx="4.57759" ry="4.57026" fill="black"/>
<ellipse cx="38.6552" cy="89.4306" rx="4.57759" ry="4.57026" fill="black"/>
<ellipse cx="19.0733" cy="87.6536" rx="0.762931" ry="0.76171" fill="white"/>
<ellipse cx="37.3836" cy="87.1457" rx="0.762931" ry="0.76171" fill="white"/>
<ellipse cx="17.6746" cy="88.7961" rx="0.381466" ry="0.380855" fill="white"/>
<ellipse cx="35.9849" cy="88.2881" rx="0.381466" ry="0.380855" fill="white"/>
<path d="M23.9052 99.0791C25.9395 95.0166 33.5688 95.0166 35.0948 99.0791" stroke="black" stroke-width="1.52027" stroke-linecap="round"/>
<path d="M26.6743 45.4391C24.4288 44.2694 19.5276 43.3921 17.8874 49.2406" stroke="#905A24" stroke-width="3.93962" stroke-linecap="round"/>
<path d="M48.7162 9.76328C47.1762 7.75567 44.1093 4.40603 40.1471 9.01455" stroke="#905A24" stroke-width="3.93962" stroke-linecap="round"/>
<path d="M38.6794 36.5989C37.1394 34.5913 33.0688 31.7282 29.1066 36.3367" stroke="#905A24" stroke-width="3.93962" stroke-linecap="round"/>
<path d="M26.8746 21.0666C25.3346 19.059 21.264 16.1959 17.3017 20.8045" stroke="#905A24" stroke-width="3.93962" stroke-linecap="round"/>
<path d="M8.20085 57.4729C7.64174 53.013 9.31797 44.5999 20.4958 46.627C20.3063 50.3965 17.5821 57.8429 8.20085 57.4729Z" fill="#A77B4C" stroke="#A67C4C" stroke-width="0.583648" stroke-linecap="round"/>
<path d="M8.20085 29.4729C7.64174 25.013 9.31797 16.5999 20.4958 18.627C20.3063 22.3965 17.5821 29.8429 8.20085 29.4729Z" fill="#A77B4C" stroke="#A77B4C" stroke-width="0.583648" stroke-linecap="round"/>
<path d="M35.7922 34.5988C40.0943 33.2746 48.6839 33.4619 48.6254 44.8043C44.8744 45.2725 37.0563 43.887 35.7922 34.5988Z" fill="#A77B4C" stroke="#A77B4C" stroke-width="0.583648" stroke-linecap="round"/>
<path d="M43.5681 6.2363C47.8702 4.9121 56.4598 5.09931 56.4013 16.4417C52.6503 16.91 44.8322 15.5244 43.5681 6.2363Z" fill="#A77B4C" stroke="#A77B4C" stroke-width="0.583648" stroke-linecap="round"/>
<path d="M39.0648 36.5039C41.7009 37.3812 45.2157 39.4282 46.9731 43.2298" stroke="#252424" stroke-width="0.583648" stroke-linecap="round"/>
<path d="M18.1804 48.6787C15.5443 49.556 12.0296 51.603 10.2722 55.4046" stroke="#252424" stroke-width="0.583648" stroke-linecap="round"/>
<path d="M18.1805 20.6787C15.5444 21.556 12.0296 23.603 10.2723 27.4046" stroke="#252424" stroke-width="0.583648" stroke-linecap="round"/>
<path d="M46.2551 7.84888C48.8912 8.72616 52.406 10.7732 54.1633 14.5747" stroke="#252424" stroke-width="0.583648" stroke-linecap="round"/>
<path d="M28.1456 62.5651C27.9228 45.5616 25.0205 11.635 28.8031 5.29665C28.9292 5.08533 29.0351 4.8811 29.1638 4.67134C30.8582 1.9091 41.1097 -2.48445 42.1544 24.531" stroke="#69421B" stroke-width="3.93962" stroke-linecap="round"/>
<defs>
<linearGradient id="paint0_linear_495_3107" x1="29.4999" y1="75.9735" x2="29.7499" y2="106.705" gradientUnits="userSpaceOnUse">
<stop offset="0.140852" stop-color="#AF5E41"/>
<stop offset="0.398366" stop-color="#CF754E"/>
<stop offset="0.703125" stop-color="#EF8B5F"/>
</linearGradient>
</defs>
</svg>
