<svg width="75" height="89" viewBox="0 0 75 89" fill="none" xmlns="http://www.w3.org/2000/svg">
<path d="M8.44481 82.4871L2.8698 54.4733C2.69585 53.5993 3.3645 52.7843 4.2557 52.7843L55.8604 52.7796L51.5278 82.3902C51.4605 82.8495 51.1682 83.25 50.749 83.4496C32.8026 91.9956 15.6942 87.0559 9.11037 83.4151C8.76003 83.2214 8.52295 82.8797 8.44481 82.4871Z" fill="url(#paint0_linear_505_4524)"/>
<path d="M29.3919 61.0642C37.3789 61.0642 44.6162 60.468 49.8627 59.5016C52.4838 59.0187 54.6207 58.4412 56.1083 57.7934C56.8512 57.4698 57.4463 57.1227 57.8597 56.7506C58.2724 56.3791 58.5304 55.9574 58.5304 55.4899C58.5304 55.0224 58.2724 54.6007 57.8597 54.2292C57.4463 53.8571 56.8512 53.51 56.1083 53.1864C54.6207 52.5386 52.4838 51.9611 49.8627 51.4782C44.6162 50.5118 37.3789 49.9156 29.3919 49.9156C21.4049 49.9156 14.1675 50.5118 8.92108 51.4782C6.29993 51.9611 4.16306 52.5386 2.67548 53.1864C1.93263 53.51 1.33744 53.8571 0.924034 54.2292C0.511415 54.6007 0.253335 55.0224 0.253335 55.4899C0.253335 55.9574 0.511415 56.3791 0.924034 56.7506C1.33744 57.1227 1.93263 57.4698 2.67548 57.7934C4.16306 58.4412 6.29993 59.0187 8.92108 59.5016C14.1675 60.468 21.4049 61.0642 29.3919 61.0642Z" fill="#CE6C49" stroke="#CE6C49" stroke-width="0.506757"/>
<rect y="48.1418" width="58.7839" height="7.60136" fill="#CE6C49"/>
<path d="M29.3919 53.9695C37.3789 53.9695 44.6162 53.3733 49.8627 52.4068C52.4838 51.924 54.6207 51.3465 56.1083 50.6986C56.8512 50.3751 57.4463 50.028 57.8597 49.6558C58.2724 49.2844 58.5304 48.8627 58.5304 48.3952C58.5304 47.9276 58.2724 47.5059 57.8597 47.1345C57.4463 46.7623 56.8512 46.4152 56.1083 46.0917C54.6207 45.4438 52.4838 44.8663 49.8627 44.3835C44.6162 43.4171 37.3789 42.8208 29.3919 42.8208C21.4049 42.8208 14.1675 43.4171 8.92108 44.3835C6.29993 44.8663 4.16306 45.4438 2.67548 46.0917C1.93263 46.4152 1.33744 46.7623 0.924034 47.1345C0.511415 47.5059 0.253335 47.9276 0.253335 48.3952C0.253335 48.8627 0.511415 49.2844 0.924034 49.6558C1.33744 50.028 1.93263 50.3751 2.67548 50.6986C4.16306 51.3465 6.29993 51.924 8.92108 52.4068C14.1675 53.3733 21.4049 53.9695 29.3919 53.9695Z" fill="#E18259" stroke="#E18259" stroke-width="0.506757"/>
<path d="M53.2096 46.6414C50.6495 49.163 42.1213 50.169 28.8177 50.169C15.0662 50.169 6.24393 48.4774 5.06763 46.6415C6.24393 44.7065 15.7009 41.0474 28.8177 41.0474C41.9344 41.0474 50.6495 44.0209 53.2096 46.6414Z" fill="#6F362E"/>
<circle cx="20.2704" cy="70.9461" r="4.56082" fill="black"/>
<circle cx="38.5136" cy="70.9461" r="4.56082" fill="black"/>
<circle cx="19.0034" cy="69.1722" r="0.760136" fill="white"/>
<circle cx="37.2466" cy="68.6657" r="0.760136" fill="white"/>
<circle cx="17.6098" cy="70.3127" r="0.380068" fill="white"/>
<circle cx="35.8531" cy="69.8058" r="0.380068" fill="white"/>
<path d="M23.8176 80.5742C25.8445 76.5202 33.4459 76.5202 34.9663 80.5742" stroke="black" stroke-width="1.52027" stroke-linecap="round"/>
<path d="M28.6895 26.5328C26.4522 25.3655 21.569 24.49 19.9348 30.3265" stroke="#905A24" stroke-width="3.93962" stroke-linecap="round"/>
<path d="M63.3244 10.3086C61.79 8.30514 57.7343 5.44797 53.7866 10.047" stroke="#905A24" stroke-width="3.93962" stroke-linecap="round"/>
<path d="M39.9784 17.3125C38.444 15.309 34.3883 12.4519 30.4406 17.0509" stroke="#905A24" stroke-width="3.93962" stroke-linecap="round"/>
<path d="M33.5582 5.05592C32.0239 3.05246 27.9682 0.195284 24.0205 4.79428" stroke="#905A24" stroke-width="3.93962" stroke-linecap="round"/>
<path d="M10.2837 38.5417C9.72666 34.091 11.3968 25.6953 22.5337 27.7183C22.3449 31.4799 19.6306 38.9109 10.2837 38.5417Z" fill="#A77B4C" stroke="#A67C4C" stroke-width="0.583648" stroke-linecap="round"/>
<path d="M14.9529 13.4451C14.3959 8.99434 16.0659 0.598656 27.2029 2.62157C27.0141 6.38323 24.2998 13.8142 14.9529 13.4451Z" fill="#A77B4C" stroke="#A77B4C" stroke-width="0.583648" stroke-linecap="round"/>
<path d="M37.1018 15.3167C41.3881 13.9952 49.9463 14.182 49.888 25.501C46.1507 25.9683 38.3613 24.5856 37.1018 15.3167Z" fill="#A77B4C" stroke="#A77B4C" stroke-width="0.583648" stroke-linecap="round"/>
<path d="M59.864 8.31299C64.1503 6.99153 72.7085 7.17836 72.6502 18.4973C68.9129 18.9646 61.1235 17.5819 59.864 8.31299Z" fill="#A77B4C" stroke="#A77B4C" stroke-width="0.583648" stroke-linecap="round"/>
<path d="M40.3624 17.2178C42.9888 18.0932 46.4907 20.136 48.2417 23.9297" stroke="#252424" stroke-width="0.583648" stroke-linecap="round"/>
<path d="M20.2267 29.7659C17.6003 30.6413 14.0984 32.6841 12.3475 36.4778" stroke="#252424" stroke-width="0.583648" stroke-linecap="round"/>
<path d="M24.8959 4.66919C22.2695 5.54466 18.7676 7.58743 17.0167 11.3811" stroke="#252424" stroke-width="0.583648" stroke-linecap="round"/>
<path d="M62.5412 9.92212C65.1676 10.7976 68.6695 12.8404 70.4204 16.6341" stroke="#252424" stroke-width="0.583648" stroke-linecap="round"/>
<path d="M28.7629 43.2604C28.3738 31.4902 29.3465 7.01585 36.3503 3.28051C41.895 1.04319 53.4512 1.35447 55.3189 20.4981" stroke="#69421B" stroke-width="3.93962" stroke-linecap="round"/>
<defs>
<linearGradient id="paint0_linear_505_4524" x1="29.3918" y1="57.5167" x2="29.6417" y2="88.1846" gradientUnits="userSpaceOnUse">
<stop offset="0.140852" stop-color="#AF5E41"/>
<stop offset="0.398366" stop-color="#CF754E"/>
<stop offset="0.703125" stop-color="#EF8B5F"/>
</linearGradient>
</defs>
</svg>
