<svg width="75" height="89" viewBox="0 0 75 89" fill="none" xmlns="http://www.w3.org/2000/svg">
<path d="M8.44481 82.4869L2.8698 54.4731C2.69585 53.599 3.3645 52.7841 4.2557 52.784L55.8604 52.7794L51.5278 82.3899C51.4605 82.8493 51.1682 83.2498 50.749 83.4494C32.8026 91.9953 15.6942 87.0556 9.11037 83.4148C8.76003 83.2211 8.52295 82.8795 8.44481 82.4869Z" fill="url(#paint0_linear_365_3444)"/>
<path d="M29.392 61.0642C37.379 61.0642 44.6164 60.468 49.8628 59.5016C52.484 59.0187 54.6208 58.4412 56.1084 57.7934C56.8513 57.4698 57.4465 57.1227 57.8599 56.7506C58.2725 56.3791 58.5306 55.9574 58.5306 55.4899C58.5306 55.0224 58.2725 54.6007 57.8599 54.2292C57.4465 53.8571 56.8513 53.51 56.1084 53.1864C54.6208 52.5386 52.484 51.9611 49.8628 51.4782C44.6164 50.5118 37.379 49.9156 29.392 49.9156C21.405 49.9156 14.1677 50.5118 8.92121 51.4782C6.30006 51.9611 4.16318 52.5386 2.6756 53.1864C1.93275 53.51 1.33757 53.8571 0.924156 54.2292C0.511537 54.6007 0.253457 55.0224 0.253457 55.4899C0.253457 55.9574 0.511537 56.3791 0.924156 56.7506C1.33757 57.1227 1.93275 57.4698 2.6756 57.7934C4.16318 58.4412 6.30006 59.0187 8.92121 59.5016C14.1677 60.468 21.405 61.0642 29.392 61.0642Z" fill="#CE6C49" stroke="#CE6C49" stroke-width="0.506757"/>
<rect y="48.1416" width="58.7839" height="7.60136" fill="#CE6C49"/>
<path d="M29.392 53.9695C37.379 53.9695 44.6164 53.3733 49.8628 52.4068C52.484 51.924 54.6208 51.3465 56.1084 50.6986C56.8513 50.3751 57.4465 50.028 57.8599 49.6558C58.2725 49.2844 58.5306 48.8627 58.5306 48.3952C58.5306 47.9276 58.2725 47.5059 57.8599 47.1345C57.4465 46.7623 56.8513 46.4152 56.1084 46.0917C54.6208 45.4438 52.484 44.8663 49.8628 44.3835C44.6164 43.4171 37.379 42.8208 29.392 42.8208C21.405 42.8208 14.1677 43.4171 8.92121 44.3835C6.30006 44.8663 4.16318 45.4438 2.6756 46.0917C1.93275 46.4152 1.33757 46.7623 0.924156 47.1345C0.511537 47.5059 0.253457 47.9276 0.253457 48.3952C0.253457 48.8627 0.511537 49.2844 0.924156 49.6558C1.33757 50.028 1.93275 50.3751 2.6756 50.6986C4.16318 51.3465 6.30006 51.924 8.92121 52.4068C14.1677 53.3733 21.405 53.9695 29.392 53.9695Z" fill="#E18259" stroke="#E18259" stroke-width="0.506757"/>
<path d="M53.2096 46.6414C50.6495 49.163 42.1213 50.169 28.8177 50.169C15.0662 50.169 6.24393 48.4774 5.06763 46.6415C6.24393 44.7065 15.7009 41.0474 28.8177 41.0474C41.9344 41.0474 50.6495 44.0209 53.2096 46.6414Z" fill="#6F362E"/>
<circle cx="20.2703" cy="70.9461" r="4.56082" fill="black"/>
<circle cx="38.5137" cy="70.9461" r="4.56082" fill="black"/>
<circle cx="19.0033" cy="69.1722" r="0.760136" fill="white"/>
<circle cx="37.2467" cy="68.6659" r="0.760136" fill="white"/>
<circle cx="17.6098" cy="70.3127" r="0.380068" fill="white"/>
<circle cx="35.8532" cy="69.8058" r="0.380068" fill="white"/>
<path d="M23.8176 80.5742C25.8445 76.5202 33.4459 76.5202 34.9663 80.5742" stroke="black" stroke-width="1.52027" stroke-linecap="round"/>
<path d="M28.6895 26.5328C26.4522 25.3655 21.569 24.49 19.9348 30.3265" stroke="#905A24" stroke-width="3.93962" stroke-linecap="round"/>
<path d="M63.3244 10.3086C61.79 8.30514 57.7343 5.44797 53.7866 10.047" stroke="#905A24" stroke-width="3.93962" stroke-linecap="round"/>
<path d="M39.9784 17.3125C38.444 15.309 34.3883 12.4519 30.4406 17.0509" stroke="#905A24" stroke-width="3.93962" stroke-linecap="round"/>
<path d="M33.5582 5.05616C32.0239 3.0527 27.9682 0.195528 24.0205 4.79453" stroke="#905A24" stroke-width="3.93962" stroke-linecap="round"/>
<path d="M10.2836 38.5417C9.72654 34.091 11.3966 25.6953 22.5335 27.7183C22.3448 31.4799 19.6305 38.9109 10.2836 38.5417Z" fill="#A77B4C" stroke="#A67C4C" stroke-width="0.583648" stroke-linecap="round"/>
<path d="M14.9528 13.4451C14.3957 8.99434 16.0658 0.598656 27.2027 2.62157C27.0139 6.38323 24.2996 13.8142 14.9528 13.4451Z" fill="#A77B4C" stroke="#A77B4C" stroke-width="0.583648" stroke-linecap="round"/>
<path d="M37.1018 15.3169C41.3881 13.9954 49.9463 14.1823 49.888 25.5013C46.1507 25.9685 38.3613 24.5858 37.1018 15.3169Z" fill="#A77B4C" stroke="#A77B4C" stroke-width="0.583648" stroke-linecap="round"/>
<path d="M59.864 8.31299C64.1503 6.99153 72.7085 7.17836 72.6502 18.4973C68.9129 18.9646 61.1235 17.5819 59.864 8.31299Z" fill="#A77B4C" stroke="#A77B4C" stroke-width="0.583648" stroke-linecap="round"/>
<path d="M40.3623 17.2178C42.9887 18.0932 46.4906 20.136 48.2416 23.9297" stroke="#252424" stroke-width="0.583648" stroke-linecap="round"/>
<path d="M20.2268 29.7661C17.6004 30.6416 14.0985 32.6844 12.3476 36.4781" stroke="#252424" stroke-width="0.583648" stroke-linecap="round"/>
<path d="M24.896 4.66895C22.2696 5.54442 18.7677 7.58718 17.0167 11.3809" stroke="#252424" stroke-width="0.583648" stroke-linecap="round"/>
<path d="M62.5413 9.92236C65.1677 10.7978 68.6696 12.8406 70.4205 16.6343" stroke="#252424" stroke-width="0.583648" stroke-linecap="round"/>
<path d="M28.7629 43.2604C28.3738 31.4902 29.3465 7.01585 36.3503 3.28051C41.895 1.04319 53.4512 1.35447 55.3189 20.4981" stroke="#69421B" stroke-width="3.93962" stroke-linecap="round"/>
<defs>
<linearGradient id="paint0_linear_365_3444" x1="29.3918" y1="57.5165" x2="29.6417" y2="88.1844" gradientUnits="userSpaceOnUse">
<stop offset="0.140852" stop-color="#AF5E41"/>
<stop offset="0.398366" stop-color="#CF754E"/>
<stop offset="0.703125" stop-color="#EF8B5F"/>
</linearGradient>
</defs>
</svg>
