<svg width="389" height="308" viewBox="0 0 389 308" fill="none" xmlns="http://www.w3.org/2000/svg">
<path d="M146.646 282.34L133.676 217.118C133.272 215.083 134.828 213.186 136.903 213.186L256.949 213.175L246.87 282.114C246.714 283.184 246.034 284.116 245.058 284.581C203.309 304.477 163.511 292.977 148.194 284.5C147.379 284.049 146.827 283.254 146.646 282.34Z" fill="url(#paint0_linear_626_3883)"/>
<path d="M195.375 233.643C213.955 233.643 230.792 232.255 242.997 230.005C249.094 228.881 254.065 227.536 257.526 226.028C259.254 225.274 260.639 224.466 261.601 223.6C262.561 222.735 263.161 221.753 263.161 220.665C263.161 219.576 262.561 218.595 261.601 217.73C260.639 216.863 259.254 216.055 257.526 215.302C254.065 213.794 249.094 212.449 242.997 211.325C230.792 209.075 213.955 207.687 195.375 207.687C176.795 207.687 159.958 209.075 147.753 211.325C141.655 212.449 136.684 213.794 133.224 215.302C131.495 216.055 130.111 216.863 129.149 217.73C128.189 218.595 127.589 219.576 127.589 220.665C127.589 221.753 128.189 222.735 129.149 223.6C130.111 224.466 131.495 225.274 133.224 226.028C136.684 227.536 141.655 228.881 147.753 230.005C159.958 232.255 176.795 233.643 195.375 233.643Z" fill="#CE6C49" stroke="#CE6C49" stroke-width="1.17983"/>
<rect x="127" y="203.557" width="136.75" height="17.6974" fill="#CE6C49"/>
<path d="M195.375 217.126C213.955 217.126 230.792 215.737 242.997 213.487C249.094 212.363 254.065 211.019 257.526 209.51C259.254 208.757 260.639 207.949 261.601 207.082C262.561 206.218 263.161 205.236 263.161 204.147C263.161 203.059 262.561 202.077 261.601 201.213C260.639 200.346 259.254 199.538 257.526 198.785C254.065 197.276 249.094 195.932 242.997 194.808C230.792 192.557 213.955 191.169 195.375 191.169C176.795 191.169 159.958 192.557 147.753 194.808C141.655 195.932 136.684 197.276 133.224 198.785C131.495 199.538 130.111 200.346 129.149 201.213C128.189 202.077 127.589 203.059 127.589 204.147C127.589 205.236 128.189 206.218 129.149 207.082C130.111 207.949 131.495 208.757 133.224 209.51C136.684 211.019 141.655 212.363 147.753 213.487C159.958 215.737 176.795 217.126 195.375 217.126Z" fill="#E18259" stroke="#E18259" stroke-width="1.17983"/>
<path d="M250.783 200.064C244.827 205.934 224.988 208.277 194.039 208.277C162.049 208.277 141.526 204.338 138.789 200.064C141.526 195.559 163.525 187.04 194.039 187.04C224.553 187.04 244.827 193.963 250.783 200.064Z" fill="#6F362E"/>
<ellipse cx="174.155" cy="256.65" rx="10.6099" ry="10.6184" fill="black"/>
<ellipse cx="216.595" cy="256.65" rx="10.6099" ry="10.6184" fill="black"/>
<ellipse cx="171.208" cy="252.52" rx="1.76832" ry="1.76974" fill="white"/>
<ellipse cx="213.648" cy="251.34" rx="1.76832" ry="1.76974" fill="white"/>
<ellipse cx="167.966" cy="255.175" rx="0.88416" ry="0.884869" fill="white"/>
<ellipse cx="210.406" cy="253.995" rx="0.88416" ry="0.884869" fill="white"/>
<path d="M182.408 271.987C187.123 281.426 204.806 281.426 208.343 271.987" stroke="black" stroke-width="3.53948" stroke-linecap="round"/>
<path d="M193.912 192.193C193.007 164.789 193.912 114.48 203.038 87.3445" stroke="#297935" stroke-width="9.17217" stroke-linecap="round"/>
<path d="M198.699 101.839C195.13 106.504 181.57 105.131 172.386 94.4235" stroke="#297935" stroke-width="9.17217" stroke-linecap="round"/>
<path d="M150.113 78.7142C159.813 74.8641 179.695 73.7344 181.625 100.017C173.043 101.784 154.726 99.9974 150.113 78.7142Z" fill="#2A943A" stroke="#2A943A" stroke-width="1.35884" stroke-linecap="round"/>
<path d="M175.165 96.5327C172.049 90.8918 165.892 83.742 156.472 81.3433" stroke="#252424" stroke-width="1.35884" stroke-linecap="round"/>
<path d="M193.984 144.313C190.414 148.977 176.855 147.604 167.671 136.897" stroke="#297935" stroke-width="9.17217" stroke-linecap="round"/>
<path d="M145.398 121.188C155.098 117.338 174.979 116.208 176.91 142.49C168.328 144.257 150.011 142.471 145.398 121.188Z" fill="#2A943A" stroke="#2A943A" stroke-width="1.35884" stroke-linecap="round"/>
<path d="M170.449 139.007C167.333 133.366 161.176 126.216 151.756 123.817" stroke="#252424" stroke-width="1.35884" stroke-linecap="round"/>
<path d="M195.621 167.91C199.19 172.574 212.75 171.201 221.934 160.494" stroke="#297935" stroke-width="9.17217" stroke-linecap="round"/>
<path d="M244.206 144.784C234.507 140.934 214.625 139.805 212.694 166.087C221.276 167.854 239.594 166.068 244.206 144.784Z" fill="#2A943A" stroke="#2A943A" stroke-width="1.35884" stroke-linecap="round"/>
<path d="M219.155 162.603C222.271 156.962 228.428 149.813 237.848 147.414" stroke="#252424" stroke-width="1.35884" stroke-linecap="round"/>
<path d="M197.978 123.076C201.547 127.741 215.107 126.368 224.291 115.66" stroke="#297935" stroke-width="9.17217" stroke-linecap="round"/>
<path d="M246.564 99.951C236.864 96.1009 216.983 94.9712 215.052 121.253C223.634 123.021 241.951 121.234 246.564 99.951Z" fill="#2A943A" stroke="#2A943A" stroke-width="1.35884" stroke-linecap="round"/>
<path d="M221.513 117.77C224.629 112.129 230.786 104.979 240.206 102.58" stroke="#252424" stroke-width="1.35884" stroke-linecap="round"/>
<path d="M227.204 56.3861C214.351 56.0191 190.854 63.097 199.686 94.3445C210.368 92.771 230.826 82.9764 227.204 56.3861Z" fill="#2A943A" stroke="#2A943A" stroke-width="1.67443" stroke-linecap="round"/>
<path d="M203.819 85.2808C206.193 77.9396 211.797 68.1301 222.319 63.1579" stroke="#252424" stroke-width="1.6267" stroke-linecap="round"/>
<path d="M248.556 177.18L270.576 157.455L269.92 156.678L247.9 176.402L246.591 178.261L248.556 177.18Z" fill="#111111"/>
<path d="M252.492 181.845L274.512 162.12L273.856 161.343L251.836 181.068L250.527 182.926L252.492 181.845Z" fill="#111111"/>
<path d="M244.621 172.514L266.641 152.79L265.985 152.012L243.965 171.737L242.656 173.595L244.621 172.514Z" fill="#111111"/>
<path d="M297.824 131.469C296.607 133.455 293.772 136.72 292.28 138.364C292.134 138.525 291.887 138.52 291.747 138.354L291.113 137.603C290.993 137.461 290.996 137.248 291.119 137.108C293.527 134.351 295.494 131.606 296.298 130.103C296.427 129.862 296.757 129.813 296.931 130.02L297.79 131.038C297.892 131.159 297.908 131.333 297.824 131.469Z" fill="#111111"/>
<path d="M291.727 141.213L289.578 143.138C289.428 143.273 289.199 143.257 289.069 143.102L286.228 139.734C286.097 139.579 286.114 139.344 286.264 139.209L288.42 137.278C288.463 137.24 288.514 137.212 288.569 137.198L290.911 136.582C291.043 136.548 291.183 136.593 291.272 136.698L292.596 138.267C292.681 138.368 292.707 138.509 292.663 138.635L291.831 141.055C291.81 141.116 291.775 141.17 291.727 141.213Z" fill="#111111"/>
<path d="M290.617 144.664C291.947 146.241 292.612 147.029 292.827 147.897C293.025 148.694 292.966 149.536 292.66 150.297C292.325 151.127 291.557 151.815 290.02 153.192L270.396 170.771C270.319 170.84 270.281 170.874 270.238 170.885C270.2 170.896 270.159 170.893 270.122 170.877C270.082 170.86 270.048 170.821 269.982 170.742L257.128 155.505C257.061 155.426 257.028 155.386 257.017 155.343C257.008 155.303 257.01 155.261 257.026 155.223C257.043 155.181 257.081 155.147 257.158 155.078L276.782 137.499C278.319 136.123 279.087 135.434 279.931 135.209C280.705 135.002 281.523 135.059 282.261 135.372C283.065 135.712 283.73 136.501 285.06 138.078L290.617 144.664Z" fill="#111111"/>
<path d="M286.181 148.176C286.601 148.674 286.548 149.43 286.063 149.865L271.148 163.226C270.663 163.661 269.929 163.609 269.508 163.111L264.804 157.534C264.384 157.036 264.436 156.28 264.922 155.845L279.837 142.484C280.322 142.05 281.056 142.101 281.476 142.599L286.181 148.176Z" fill="#A983B6"/>
<defs>
<linearGradient id="paint0_linear_626_3883" x1="195.375" y1="228.333" x2="195.957" y2="295.605" gradientUnits="userSpaceOnUse">
<stop offset="0.140852" stop-color="#AF5E41"/>
<stop offset="0.398366" stop-color="#CF754E"/>
<stop offset="0.703125" stop-color="#EF8B5F"/>
</linearGradient>
</defs>
</svg>
