<svg width="108" height="90" viewBox="0 0 108 90" fill="none" xmlns="http://www.w3.org/2000/svg">
<path d="M105.533 45C105.533 68.488 86.4733 87.5328 62.9575 87.5328C39.4416 87.5328 20.3822 68.488 20.3822 45C20.3822 21.512 39.4416 2.46725 62.9575 2.46725C86.4733 2.46725 105.533 21.512 105.533 45Z" fill="#FFF4E5" stroke="#BD8E68" stroke-width="4.93449"/>
<ellipse cx="63.0908" cy="44.8653" rx="3.33155" ry="3.36826" fill="#595959"/>
<path d="M63.2241 22.4995V44.5885C63.2241 44.6773 63.1811 44.7606 63.1086 44.812L43.1016 59.0115" stroke="#595959" stroke-width="4.11208" stroke-linecap="round"/>
<path d="M11.2519 19.9399C3.61156 33.1435 -5.24586 60.413 17.7818 76.7962" stroke="#595959" stroke-width="4.11208" stroke-linecap="round"/>
<path d="M8.05365 78.008H18.9252C19.0942 78.008 19.2229 77.8566 19.1958 77.6898L17.2487 65.7476" stroke="#595959" stroke-width="2.74139" stroke-linecap="round"/>
</svg>
