<svg width="74" height="62" viewBox="0 0 74 62" fill="none" xmlns="http://www.w3.org/2000/svg">
<path d="M72.3083 31C72.3083 47.1923 59.2316 60.3082 43.1138 60.3082C26.996 60.3082 13.9194 47.1923 13.9194 31C13.9194 14.8077 26.996 1.69183 43.1138 1.69183C59.2316 1.69183 72.3083 14.8077 72.3083 31Z" fill="#FFF4E5" stroke="#BD8E68" stroke-width="3.38365"/>
<ellipse cx="43.2051" cy="30.9073" rx="2.28449" ry="2.32036" fill="#595959"/>
<path d="M43.2966 15.4995V30.717C43.2966 30.7778 43.2672 30.8348 43.2177 30.8701L29.4983 40.6522" stroke="#595959" stroke-width="2.81971" stroke-linecap="round"/>
<path d="M7.65845 13.7363C2.41936 22.8321 -3.6543 41.6178 12.1361 52.904" stroke="#595959" stroke-width="2.81971" stroke-linecap="round"/>
<path d="M5.46533 53.7386H12.9203C13.0361 53.7386 13.1244 53.6348 13.1058 53.5205L11.7705 45.2925" stroke="#595959" stroke-width="1.87981" stroke-linecap="round"/>
</svg>
