<svg width="135" height="62" viewBox="0 0 135 62" fill="none" xmlns="http://www.w3.org/2000/svg">
<path d="M67.1531 60.9372C85.1836 60.9372 101.531 59.5946 113.393 57.4145C119.316 56.3259 124.167 55.0202 127.56 53.546C129.253 52.8104 130.635 52.0106 131.609 51.1358C132.58 50.2639 133.244 49.2232 133.244 48.0249C133.244 46.8266 132.58 45.7859 131.609 44.914C130.635 44.0392 129.253 43.2394 127.56 42.5038C124.167 41.0296 119.316 39.7239 113.393 38.6353C101.531 36.4553 85.1836 35.1126 67.1531 35.1126C49.1226 35.1126 32.7749 36.4553 20.9134 38.6353C14.9903 39.7239 10.139 41.0296 6.74635 42.5038C5.0535 43.2394 3.671 44.0392 2.69709 44.914C1.72626 45.7859 1.06229 46.8266 1.06229 48.0249C1.06229 49.2232 1.72626 50.2639 2.69709 51.1358C3.671 52.0106 5.0535 52.8104 6.74635 53.546C10.139 55.0202 14.9903 56.3259 20.9134 57.4145C32.7749 59.5946 49.1226 60.9372 67.1531 60.9372Z" fill="#CE6C49" stroke="#CE6C49" stroke-width="1.87541"/>
<path d="M120.877 44.08C115.102 49.7546 95.866 52.0186 65.8584 52.0186C34.8409 52.0186 14.9414 48.2116 12.2881 44.0801C14.9414 39.7255 36.2724 31.4907 65.8584 31.4907C95.4445 31.4907 115.102 38.1825 120.877 44.08Z" fill="#6F362E"/>
<path d="M78.5417 35.687C78.6661 31.9318 78.5417 25.0379 77.2872 21.3193" stroke="#297935" stroke-width="3.17712" stroke-linecap="round"/>
<path d="M75.4399 9.94482C71.8928 9.94482 71.4284 14.1579 71.6395 16.2645C68.5991 16.7701 67.4169 19.003 67.2058 20.0563C66.6991 22.5841 69.9505 24.48 71.6395 25.112C71.1329 26.1231 71.4609 27.8582 72.2728 28.2718C74.7537 29.5358 76.9177 28.0612 77.9734 27.0079C80.507 29.0302 82.4072 28.2718 83.0406 27.6399C85.5743 25.744 84.7297 23.4268 83.6741 21.9522C86.2077 18.9187 85.9965 16.4751 85.5743 15.6325C85.0675 14.1158 81.5627 14.1579 79.8736 14.3686C78.3534 10.8296 76.2844 9.94482 75.4399 9.94482Z" fill="#A7916E"/>
<path d="M77.0012 17.5273C76.039 17.5273 75.913 18.6702 75.9703 19.2417C75.1455 19.3788 74.8248 19.9846 74.7676 20.2703C74.6301 20.9561 75.5121 21.4704 75.9703 21.6418C75.8329 21.9161 75.9218 22.3868 76.1421 22.499C76.8151 22.8418 77.4021 22.4418 77.6885 22.1561C78.3758 22.7047 78.8913 22.499 79.0631 22.3275C79.7504 21.8132 79.5213 21.1846 79.2349 20.7846C79.9222 19.9617 79.865 19.2988 79.7504 19.0703C79.613 18.6588 78.6622 18.6702 78.204 18.7274C77.7916 17.7674 77.2303 17.5273 77.0012 17.5273Z" fill="#FCEACC"/>
<path d="M88.6705 47.2894C88.5861 44.7431 88.6705 40.0684 89.5211 37.5469" stroke="#297935" stroke-width="2.15436" stroke-linecap="round"/>
<path d="M90.7737 29.8335C93.1789 29.8335 93.4939 32.6903 93.3507 34.1188C95.4123 34.4616 96.214 35.9757 96.3571 36.6899C96.7007 38.4041 94.496 39.6896 93.3507 40.1182C93.6943 40.8038 93.4718 41.9804 92.9213 42.2608C91.239 43.1179 89.7716 42.118 89.0558 41.4037C87.3378 42.775 86.0493 42.2608 85.6197 41.8323C83.9017 40.5467 84.4744 38.9754 85.1902 37.9755C83.4722 35.9186 83.6154 34.2616 83.9017 33.6902C84.2453 32.6618 86.6219 32.6903 87.7673 32.8332C88.7981 30.4334 90.2011 29.8335 90.7737 29.8335Z" fill="#A7916E"/>
<path d="M89.7149 34.9761C90.3673 34.9761 90.4528 35.7511 90.414 36.1386C90.9732 36.2316 91.1907 36.6423 91.2295 36.836C91.3227 37.301 90.7246 37.6498 90.414 37.766C90.5071 37.952 90.4468 38.2712 90.2975 38.3473C89.8411 38.5798 89.443 38.3085 89.2488 38.1148C88.7828 38.4868 88.4333 38.3473 88.3167 38.231C87.8507 37.8823 88.006 37.456 88.2002 37.1848C87.7342 36.6268 87.773 36.1773 87.8507 36.0223C87.9439 35.7433 88.5886 35.7511 88.8993 35.7898C89.1789 35.1388 89.5595 34.9761 89.7149 34.9761Z" fill="#FCEACC"/>
<path d="M37.2494 44.727C37.3738 40.9719 37.2494 34.0779 35.995 30.3594" stroke="#297935" stroke-width="3.17712" stroke-linecap="round"/>
<path d="M34.1479 18.9839C30.6009 18.9839 30.1364 23.197 30.3475 25.3035C27.3071 25.8091 26.1249 28.0421 25.9138 29.0953C25.4071 31.6232 28.6585 33.5191 30.3475 34.1511C29.8409 35.1622 30.1689 36.8973 30.9808 37.3109C33.4617 38.5748 35.6257 37.1002 36.6814 36.047C39.215 38.0693 41.1152 37.3109 41.7487 36.6789C44.2823 34.783 43.4377 32.4658 42.3821 30.9912C44.9157 27.9578 44.7045 25.5142 44.2823 24.6716C43.7756 23.1549 40.2707 23.197 38.5816 23.4076C37.0615 19.8686 34.9924 18.9839 34.1479 18.9839Z" fill="#A7916E"/>
<path d="M35.7092 26.5684C34.747 26.5684 34.621 27.7113 34.6783 28.2827C33.8535 28.4199 33.5328 29.0256 33.4756 29.3113C33.3381 29.9971 34.2201 30.5114 34.6783 30.6828C34.5409 30.9571 34.6299 31.4278 34.8501 31.54C35.5231 31.8829 36.1101 31.4828 36.3965 31.1971C37.0838 31.7457 37.5993 31.54 37.7711 31.3685C38.4584 30.8542 38.2293 30.2256 37.9429 29.8256C38.6302 29.0027 38.573 28.3399 38.4584 28.1113C38.321 27.6998 37.3702 27.7113 36.912 27.7684C36.4996 26.8084 35.9383 26.5684 35.7092 26.5684Z" fill="#FCEACC"/>
<path d="M52.8083 36.376C50.5856 38.4708 49.9367 41.8403 50.7888 49.9352" stroke="black" stroke-width="0.844339" stroke-linecap="round"/>
<path d="M56.6856 34.1063L55.1326 34.8616C54.9227 34.9637 54.6795 34.8056 54.6877 34.5723L54.7792 31.9595C54.7889 31.6823 54.4573 31.5331 54.2563 31.7242L52.4949 33.3989C52.3212 33.5641 52.0337 33.4778 51.9798 33.2442L51.606 31.6248C51.5466 31.3679 51.2145 31.3001 51.0623 31.5154C46.8543 37.4728 49.0781 40.1491 50.7301 40.565C53.8016 41.7675 56.1306 37.3472 57.104 34.465C57.1898 34.2107 56.927 33.9889 56.6856 34.1063Z" fill="#F7D060"/>
<path d="M64.4102 23.1172C62.1874 25.212 61.5385 28.5815 62.3906 36.6764" stroke="black" stroke-width="0.844339" stroke-linecap="round"/>
<path d="M68.2876 20.847L66.7347 21.6024C66.5247 21.7045 66.2816 21.5464 66.2898 21.313L66.3812 18.7002C66.3909 18.423 66.0594 18.2738 65.8584 18.4649L64.097 20.1397C63.9233 20.3048 63.6358 20.2185 63.5819 19.9849L63.208 18.3655C63.1487 18.1086 62.8165 18.0408 62.6644 18.2561C58.4563 24.2135 60.6802 26.8898 62.3322 27.3057C65.4037 28.5082 67.7327 24.0879 68.706 21.2058C68.7919 20.9514 68.529 20.7296 68.2876 20.847Z" fill="#F7D060"/>
<path d="M68.6533 38.6123C70.5096 40.3617 71.0515 43.1756 70.3399 49.9357" stroke="black" stroke-width="0.705111" stroke-linecap="round"/>
<path d="M65.4153 36.7162L66.7121 37.347C66.8875 37.4322 67.0905 37.3002 67.0837 37.1054L67.0073 34.9233C66.9992 34.6919 67.2761 34.5673 67.444 34.7269L68.9149 36.1255C69.06 36.2634 69.3 36.1913 69.3451 35.9962L69.6573 34.6439C69.7068 34.4293 69.9842 34.3727 70.1113 34.5525C73.6254 39.5275 71.7683 41.7626 70.3887 42.1099C67.8237 43.1141 65.8787 39.4227 65.0659 37.0158C64.9942 36.8034 65.2137 36.6181 65.4153 36.7162Z" fill="#F7D060"/>
<path d="M18.2246 33.0615C20.4474 35.1564 21.0963 38.5258 20.2442 46.6208" stroke="black" stroke-width="0.844339" stroke-linecap="round"/>
<path d="M14.3471 30.7914L15.9001 31.5467C16.11 31.6488 16.3532 31.4907 16.345 31.2574L16.2535 28.6445C16.2438 28.3673 16.5754 28.2181 16.7764 28.4093L18.5378 30.084C18.7115 30.2492 18.999 30.1628 19.0529 29.9292L19.4268 28.3099C19.4861 28.053 19.8183 27.9851 19.9704 28.2005C24.1784 34.1578 21.9546 36.8342 20.3026 37.2501C17.2311 38.4526 14.9021 34.0322 13.9288 31.1501C13.8429 30.8958 14.1058 30.6739 14.3471 30.7914Z" fill="#F7D060"/>
<path d="M46.7525 35.3568C46.5288 28.5904 46.7525 16.1682 49.0078 9.46777" stroke="#297935" stroke-width="2.26479" stroke-linecap="round"/>
<path d="M47.9358 13.0465C47.0538 14.1983 43.7029 13.8593 41.4334 11.2154" stroke="#297935" stroke-width="2.26479" stroke-linecap="round"/>
<path d="M35.9296 7.33602C38.3265 6.38535 43.2396 6.10641 43.7168 12.596C41.596 13.0324 37.0695 12.5913 35.9296 7.33602Z" fill="#2A943A" stroke="#2A943A" stroke-width="0.335525" stroke-linecap="round"/>
<path d="M42.1201 11.7358C41.3501 10.343 39.8286 8.57755 37.5007 7.98527" stroke="#252424" stroke-width="0.335525" stroke-linecap="round"/>
<path d="M46.7705 23.5343C45.8885 24.6861 42.5376 24.3471 40.2682 21.7032" stroke="#297935" stroke-width="2.26479" stroke-linecap="round"/>
<path d="M34.7641 17.8248C37.161 16.8741 42.0741 16.5952 42.5512 23.0848C40.4305 23.5211 35.9039 23.08 34.7641 17.8248Z" fill="#2A943A" stroke="#2A943A" stroke-width="0.335525" stroke-linecap="round"/>
<path d="M40.9548 22.2246C40.1848 20.8317 38.6633 19.0663 36.3355 18.474" stroke="#252424" stroke-width="0.335525" stroke-linecap="round"/>
<path d="M47.1748 29.3605C48.0568 30.5122 51.4077 30.1732 53.6772 27.5294" stroke="#297935" stroke-width="2.26479" stroke-linecap="round"/>
<path d="M59.1812 23.651C56.7843 22.7003 51.8712 22.4214 51.3941 28.9109C53.5148 29.3473 58.0414 28.9062 59.1812 23.651Z" fill="#2A943A" stroke="#2A943A" stroke-width="0.335525" stroke-linecap="round"/>
<path d="M52.9905 28.0513C53.7605 26.6584 55.282 24.893 57.6099 24.3007" stroke="#252424" stroke-width="0.335525" stroke-linecap="round"/>
<path d="M47.7575 18.2912C48.6396 19.4429 51.9905 19.1039 54.2599 16.46" stroke="#297935" stroke-width="2.26479" stroke-linecap="round"/>
<path d="M59.7643 12.5806C57.3673 11.63 52.4542 11.351 51.9771 17.8406C54.0979 18.277 58.6244 17.8359 59.7643 12.5806Z" fill="#2A943A" stroke="#2A943A" stroke-width="0.335525" stroke-linecap="round"/>
<path d="M53.5735 16.9795C54.3435 15.5866 55.865 13.8212 58.1929 13.2289" stroke="#252424" stroke-width="0.335525" stroke-linecap="round"/>
<path d="M54.9798 1.82378C51.8037 1.73317 45.997 3.48083 48.1796 11.1965C50.8192 10.8079 55.8747 8.38945 54.9798 1.82378Z" fill="#2A943A" stroke="#2A943A" stroke-width="0.413451" stroke-linecap="round"/>
<path d="M49.2009 8.95801C49.7876 7.14533 51.1724 4.72316 53.7726 3.49543" stroke="#252424" stroke-width="0.401665" stroke-linecap="round"/>
<path d="M105.785 38.6713C106.008 31.9049 105.785 19.4826 103.529 12.7822" stroke="#297935" stroke-width="2.26479" stroke-linecap="round"/>
<path d="M104.602 16.3615C105.484 17.5132 108.834 17.1742 111.104 14.5304" stroke="#297935" stroke-width="2.26479" stroke-linecap="round"/>
<path d="M116.608 10.651C114.211 9.70029 109.298 9.42135 108.821 15.9109C110.942 16.3473 115.468 15.9062 116.608 10.651Z" fill="#2A943A" stroke="#2A943A" stroke-width="0.335525" stroke-linecap="round"/>
<path d="M110.417 15.0508C111.187 13.6579 112.709 11.8925 115.037 11.3002" stroke="#252424" stroke-width="0.335525" stroke-linecap="round"/>
<path d="M105.767 26.8483C106.649 28 110 27.661 112.269 25.0172" stroke="#297935" stroke-width="2.26479" stroke-linecap="round"/>
<path d="M117.773 21.1392C115.376 20.1886 110.463 19.9096 109.986 26.3992C112.107 26.8356 116.633 26.3945 117.773 21.1392Z" fill="#2A943A" stroke="#2A943A" stroke-width="0.335525" stroke-linecap="round"/>
<path d="M111.583 25.5386C112.353 24.1457 113.874 22.3803 116.202 21.788" stroke="#252424" stroke-width="0.335525" stroke-linecap="round"/>
<path d="M105.363 32.6759C104.481 33.8277 101.13 33.4887 98.8602 30.8448" stroke="#297935" stroke-width="2.26479" stroke-linecap="round"/>
<path d="M93.3561 26.9659C95.753 26.0152 100.666 25.7363 101.143 32.2259C99.0225 32.6622 94.496 32.2212 93.3561 26.9659Z" fill="#2A943A" stroke="#2A943A" stroke-width="0.335525" stroke-linecap="round"/>
<path d="M99.5469 31.3662C98.7769 29.9733 97.2553 28.2079 94.9275 27.6156" stroke="#252424" stroke-width="0.335525" stroke-linecap="round"/>
<path d="M104.78 21.6056C103.898 22.7574 100.547 22.4183 98.2774 19.7745" stroke="#297935" stroke-width="2.26479" stroke-linecap="round"/>
<path d="M92.7733 15.8956C95.1703 14.9449 100.083 14.666 100.561 21.1556C98.4397 21.5919 93.9132 21.1508 92.7733 15.8956Z" fill="#2A943A" stroke="#2A943A" stroke-width="0.335525" stroke-linecap="round"/>
<path d="M98.9639 20.2954C98.1939 18.9025 96.6723 17.1371 94.3445 16.5448" stroke="#252424" stroke-width="0.335525" stroke-linecap="round"/>
<path d="M97.5576 5.13873C100.734 5.04811 106.54 6.79578 104.358 14.5114C101.718 14.1229 96.6626 11.7044 97.5576 5.13873Z" fill="#2A943A" stroke="#2A943A" stroke-width="0.413451" stroke-linecap="round"/>
<path d="M103.336 12.2729C102.75 10.4603 101.365 8.0381 98.7648 6.81037" stroke="#252424" stroke-width="0.401665" stroke-linecap="round"/>
</svg>
