<svg width="389" height="308" viewBox="0 0 389 308" fill="none" xmlns="http://www.w3.org/2000/svg">
<path d="M146.646 282.34L133.676 217.118C133.272 215.083 134.828 213.186 136.903 213.186L256.949 213.175L246.87 282.114C246.714 283.184 246.034 284.116 245.058 284.581C203.309 304.477 163.511 292.977 148.194 284.5C147.379 284.049 146.827 283.254 146.646 282.34Z" fill="url(#paint0_linear_655_3970)"/>
<path d="M195.375 233.643C213.955 233.643 230.792 232.255 242.997 230.005C249.094 228.881 254.065 227.536 257.526 226.028C259.254 225.274 260.639 224.466 261.601 223.6C262.561 222.735 263.161 221.753 263.161 220.665C263.161 219.576 262.561 218.595 261.601 217.73C260.639 216.863 259.254 216.055 257.526 215.302C254.065 213.794 249.094 212.449 242.997 211.325C230.792 209.075 213.955 207.687 195.375 207.687C176.795 207.687 159.958 209.075 147.753 211.325C141.655 212.449 136.684 213.794 133.224 215.302C131.495 216.055 130.111 216.863 129.149 217.73C128.189 218.595 127.589 219.576 127.589 220.665C127.589 221.753 128.189 222.735 129.149 223.6C130.111 224.466 131.495 225.274 133.224 226.028C136.684 227.536 141.655 228.881 147.753 230.005C159.958 232.255 176.795 233.643 195.375 233.643Z" fill="#CE6C49" stroke="#CE6C49" stroke-width="1.17983"/>
<rect x="127" y="203.557" width="136.75" height="17.6974" fill="#CE6C49"/>
<path d="M195.375 217.126C213.955 217.126 230.792 215.737 242.997 213.487C249.094 212.363 254.065 211.019 257.526 209.51C259.254 208.757 260.639 207.949 261.601 207.082C262.561 206.218 263.161 205.236 263.161 204.147C263.161 203.059 262.561 202.077 261.601 201.213C260.639 200.346 259.254 199.538 257.526 198.785C254.065 197.276 249.094 195.932 242.997 194.808C230.792 192.557 213.955 191.169 195.375 191.169C176.795 191.169 159.958 192.557 147.753 194.808C141.655 195.932 136.684 197.276 133.224 198.785C131.495 199.538 130.111 200.346 129.149 201.213C128.189 202.077 127.589 203.059 127.589 204.147C127.589 205.236 128.189 206.218 129.149 207.082C130.111 207.949 131.495 208.757 133.224 209.51C136.684 211.019 141.655 212.363 147.753 213.487C159.958 215.737 176.795 217.126 195.375 217.126Z" fill="#E18259" stroke="#E18259" stroke-width="1.17983"/>
<path d="M250.782 200.064C244.827 205.934 224.987 208.277 194.039 208.277C162.049 208.277 141.525 204.338 138.789 200.064C141.525 195.559 163.525 187.04 194.039 187.04C224.553 187.04 244.827 193.963 250.782 200.064Z" fill="#6F362E"/>
<ellipse cx="174.155" cy="256.65" rx="10.6099" ry="10.6184" fill="black"/>
<ellipse cx="216.595" cy="256.65" rx="10.6099" ry="10.6184" fill="black"/>
<ellipse cx="171.208" cy="252.52" rx="1.76832" ry="1.76974" fill="white"/>
<ellipse cx="213.648" cy="251.34" rx="1.76832" ry="1.76974" fill="white"/>
<ellipse cx="167.966" cy="255.175" rx="0.88416" ry="0.884869" fill="white"/>
<ellipse cx="210.406" cy="253.995" rx="0.88416" ry="0.884869" fill="white"/>
<path d="M182.408 271.987C187.123 281.426 204.806 281.426 208.343 271.987" stroke="black" stroke-width="3.53948" stroke-linecap="round"/>
<path d="M193.912 192.193C193.007 164.789 193.912 114.48 203.038 87.3445" stroke="#297935" stroke-width="9.17217" stroke-linecap="round"/>
<path d="M198.699 101.839C195.13 106.504 181.57 105.131 172.386 94.4235" stroke="#297935" stroke-width="9.17217" stroke-linecap="round"/>
<path d="M150.113 78.7142C159.813 74.8641 179.694 73.7344 181.625 100.017C173.043 101.784 154.726 99.9974 150.113 78.7142Z" fill="#2A943A" stroke="#2A943A" stroke-width="1.35884" stroke-linecap="round"/>
<path d="M175.165 96.5327C172.049 90.8918 165.892 83.742 156.472 81.3433" stroke="#252424" stroke-width="1.35884" stroke-linecap="round"/>
<path d="M193.984 144.313C190.415 148.977 176.855 147.604 167.671 136.897" stroke="#297935" stroke-width="9.17217" stroke-linecap="round"/>
<path d="M145.398 121.188C155.097 117.338 174.979 116.208 176.91 142.49C168.328 144.257 150.011 142.471 145.398 121.188Z" fill="#2A943A" stroke="#2A943A" stroke-width="1.35884" stroke-linecap="round"/>
<path d="M170.449 139.007C167.333 133.366 161.176 126.216 151.756 123.817" stroke="#252424" stroke-width="1.35884" stroke-linecap="round"/>
<path d="M195.62 167.91C199.19 172.574 212.75 171.201 221.933 160.494" stroke="#297935" stroke-width="9.17217" stroke-linecap="round"/>
<path d="M244.207 144.784C234.507 140.934 214.625 139.805 212.695 166.087C221.277 167.854 239.594 166.068 244.207 144.784Z" fill="#2A943A" stroke="#2A943A" stroke-width="1.35884" stroke-linecap="round"/>
<path d="M219.155 162.603C222.271 156.962 228.428 149.813 237.848 147.414" stroke="#252424" stroke-width="1.35884" stroke-linecap="round"/>
<path d="M197.977 123.076C201.547 127.741 215.107 126.368 224.29 115.66" stroke="#297935" stroke-width="9.17217" stroke-linecap="round"/>
<path d="M246.564 99.951C236.864 96.1009 216.983 94.9712 215.052 121.253C223.634 123.021 241.951 121.234 246.564 99.951Z" fill="#2A943A" stroke="#2A943A" stroke-width="1.35884" stroke-linecap="round"/>
<path d="M221.513 117.77C224.629 112.129 230.786 104.979 240.206 102.58" stroke="#252424" stroke-width="1.35884" stroke-linecap="round"/>
<path d="M227.204 56.3861C214.351 56.0191 190.854 63.097 199.686 94.3445C210.367 92.771 230.825 82.9764 227.204 56.3861Z" fill="#2A943A" stroke="#2A943A" stroke-width="1.67443" stroke-linecap="round"/>
<path d="M203.819 85.2808C206.193 77.9396 211.797 68.1301 222.319 63.1579" stroke="#252424" stroke-width="1.6267" stroke-linecap="round"/>
<path d="M229.557 196.18L251.577 176.455L250.921 175.678L228.901 195.402L227.592 197.261L229.557 196.18Z" fill="#111111"/>
<path d="M233.492 200.845L255.512 181.12L254.856 180.343L232.836 200.068L231.527 201.926L233.492 200.845Z" fill="#111111"/>
<path d="M225.621 191.514L247.641 171.79L246.985 171.012L224.965 190.737L223.656 192.595L225.621 191.514Z" fill="#111111"/>
<path d="M278.824 150.469C277.607 152.455 274.772 155.72 273.28 157.364C273.134 157.525 272.887 157.52 272.747 157.354L272.113 156.603C271.993 156.461 271.996 156.248 272.119 156.108C274.527 153.351 276.494 150.606 277.298 149.103C277.427 148.862 277.757 148.813 277.931 149.02L278.79 150.038C278.892 150.159 278.908 150.333 278.824 150.469Z" fill="#111111"/>
<path d="M272.728 160.213L270.579 162.138C270.428 162.273 270.2 162.257 270.069 162.102L267.228 158.734C267.097 158.579 267.114 158.344 267.265 158.209L269.421 156.278C269.463 156.24 269.514 156.212 269.569 156.198L271.911 155.582C272.044 155.548 272.183 155.593 272.272 155.698L273.596 157.267C273.681 157.368 273.707 157.509 273.663 157.635L272.832 160.055C272.811 160.116 272.775 160.17 272.728 160.213Z" fill="#111111"/>
<path d="M271.617 163.664C272.947 165.241 273.612 166.029 273.828 166.897C274.025 167.694 273.967 168.536 273.66 169.297C273.326 170.127 272.557 170.815 271.021 172.192L251.396 189.771C251.319 189.84 251.281 189.874 251.239 189.885C251.2 189.896 251.159 189.893 251.122 189.877C251.082 189.86 251.049 189.821 250.982 189.742L238.128 174.505C238.062 174.426 238.028 174.386 238.018 174.343C238.008 174.303 238.011 174.261 238.026 174.223C238.043 174.181 238.081 174.147 238.158 174.078L257.783 156.499C259.319 155.123 260.087 154.434 260.931 154.209C261.706 154.002 262.523 154.059 263.261 154.372C264.065 154.712 264.731 155.501 266.061 157.078L271.617 163.664Z" fill="#111111"/>
<path d="M267.181 167.176C267.602 167.674 267.549 168.43 267.063 168.865L252.148 182.226C251.663 182.661 250.929 182.609 250.509 182.111L245.804 176.534C245.384 176.036 245.437 175.28 245.922 174.845L260.837 161.484C261.322 161.05 262.057 161.101 262.477 161.599L267.181 167.176Z" fill="#A983B6"/>
<defs>
<linearGradient id="paint0_linear_655_3970" x1="195.375" y1="228.333" x2="195.957" y2="295.605" gradientUnits="userSpaceOnUse">
<stop offset="0.140852" stop-color="#AF5E41"/>
<stop offset="0.398366" stop-color="#CF754E"/>
<stop offset="0.703125" stop-color="#EF8B5F"/>
</linearGradient>
</defs>
</svg>
