<svg width="59" height="105" viewBox="0 0 59 105" fill="none" xmlns="http://www.w3.org/2000/svg">
<path d="M8.47523 99.0741L2.88103 71.3875C2.70624 70.5224 3.36732 69.7143 4.24981 69.7142L56.0657 69.7096L51.7176 98.9784C51.6499 99.4341 51.3581 99.8303 50.9411 100.026C32.9235 108.479 15.7466 103.592 9.14039 99.9926C8.79114 99.8023 8.55399 99.464 8.47523 99.0741Z" fill="url(#paint0_linear_505_4491)"/>
<path d="M29.5 78.4002C37.5161 78.4002 44.7796 77.8109 50.0448 76.8556C52.6753 76.3783 54.8195 75.8075 56.3119 75.1673C57.0571 74.8477 57.654 74.5048 58.0686 74.1372C58.4821 73.7706 58.7419 73.3534 58.7419 72.8897C58.7419 72.426 58.4821 72.0088 58.0686 71.6422C57.654 71.2746 57.0571 70.9317 56.3119 70.612C54.8195 69.9719 52.6753 69.4011 50.0448 68.9238C44.7796 67.9685 37.5161 67.3792 29.5 67.3792C21.484 67.3792 14.2205 67.9685 8.95533 68.9238C6.32479 69.4011 4.18063 69.9719 2.68821 70.612C1.94298 70.9317 1.34607 71.2746 0.931494 71.6422C0.517991 72.0088 0.258188 72.426 0.258188 72.8897C0.258188 73.3534 0.517991 73.7706 0.931494 74.1372C1.34607 74.5048 1.94298 74.8477 2.68821 75.1673C4.18063 75.8075 6.32479 76.3783 8.95533 76.8556C14.2205 77.8109 21.484 78.4002 29.5 78.4002Z" fill="#CE6C49" stroke="#CE6C49" stroke-width="0.500957"/>
<rect y="65.6257" width="59" height="7.51436" fill="#CE6C49"/>
<path d="M29.5 71.3865C37.5161 71.3865 44.7796 70.7972 50.0448 69.8419C52.6753 69.3646 54.8195 68.7938 56.3119 68.1537C57.0571 67.834 57.654 67.4911 58.0686 67.1235C58.4821 66.7569 58.7419 66.3397 58.7419 65.876C58.7419 65.4123 58.4821 64.9951 58.0686 64.6285C57.654 64.2609 57.0571 63.9181 56.3119 63.5984C54.8195 62.9582 52.6753 62.3874 50.0448 61.9101C44.7796 60.9549 37.5161 60.3655 29.5 60.3655C21.484 60.3655 14.2205 60.9549 8.95533 61.9101C6.32479 62.3874 4.18063 62.9582 2.68821 63.5984C1.94298 63.9181 1.34607 64.2609 0.931494 64.6285C0.517991 64.9951 0.258188 65.4123 0.258188 65.876C0.258188 66.3397 0.517991 66.7569 0.931494 67.1235C1.34607 67.4911 1.94298 67.834 2.68821 68.1537C4.18063 68.7938 6.32479 69.3646 8.95533 69.8419C14.2205 70.7972 21.484 71.3865 29.5 71.3865Z" fill="#E18259" stroke="#E18259" stroke-width="0.500957"/>
<path d="M53.4054 64.1423C50.8359 66.635 42.2764 67.6295 28.9238 67.6295C15.1218 67.6295 6.26706 65.9573 5.08643 64.1424C6.26706 62.2296 15.7588 58.6123 28.9238 58.6123C42.0888 58.6123 50.8359 61.5518 53.4054 64.1423Z" fill="#6F362E"/>
<ellipse cx="20.3449" cy="88.1688" rx="4.57759" ry="4.50862" fill="black"/>
<ellipse cx="38.6552" cy="88.1688" rx="4.57759" ry="4.50862" fill="black"/>
<ellipse cx="19.0732" cy="86.415" rx="0.762931" ry="0.751436" fill="white"/>
<ellipse cx="37.3838" cy="85.914" rx="0.762931" ry="0.751436" fill="white"/>
<ellipse cx="17.6745" cy="87.5422" rx="0.381466" ry="0.375718" fill="white"/>
<ellipse cx="35.9848" cy="87.0417" rx="0.381466" ry="0.375718" fill="white"/>
<path d="M23.9053 94.6812C25.9397 98.6888 33.569 98.6888 35.095 94.6812" stroke="black" stroke-width="1.50287" stroke-linecap="round"/>
<path d="M28.8685 60.8C28.478 49.1645 28.8685 27.8033 32.806 16.2812" stroke="#297935" stroke-width="3.89453" stroke-linecap="round"/>
<path d="M30.9341 22.4353C29.3941 24.4159 23.5438 23.8329 19.5816 19.2866" stroke="#297935" stroke-width="3.89453" stroke-linecap="round"/>
<path d="M9.972 12.6165C14.1568 10.9818 22.7346 10.5021 23.5677 21.6616C19.865 22.412 11.9621 21.6535 9.972 12.6165Z" fill="#2A943A" stroke="#2A943A" stroke-width="0.576968" stroke-linecap="round"/>
<path d="M20.7803 20.1826C19.4359 17.7875 16.7794 14.7516 12.7153 13.7331" stroke="#252424" stroke-width="0.576968" stroke-linecap="round"/>
<path d="M28.8998 40.4705C27.3598 42.451 21.5095 41.8681 17.5473 37.3217" stroke="#297935" stroke-width="3.89453" stroke-linecap="round"/>
<path d="M7.93758 30.6507C12.1224 29.016 20.7002 28.5363 21.5332 39.6958C17.8306 40.4461 9.9277 39.6876 7.93758 30.6507Z" fill="#2A943A" stroke="#2A943A" stroke-width="0.576968" stroke-linecap="round"/>
<path d="M18.7457 38.2168C17.4014 35.8216 14.7449 32.7858 10.6807 31.7673" stroke="#252424" stroke-width="0.576968" stroke-linecap="round"/>
<path d="M29.6056 50.4895C31.1456 52.4701 36.9959 51.8871 40.9582 47.3408" stroke="#297935" stroke-width="3.89453" stroke-linecap="round"/>
<path d="M50.5677 40.6703C46.3829 39.0355 37.805 38.5558 36.972 49.7153C40.6747 50.4657 48.5775 49.7072 50.5677 40.6703Z" fill="#2A943A" stroke="#2A943A" stroke-width="0.576968" stroke-linecap="round"/>
<path d="M39.7598 48.2363C41.1042 45.8412 43.7607 42.8053 47.8248 41.7868" stroke="#252424" stroke-width="0.576968" stroke-linecap="round"/>
<path d="M30.6228 31.4534C32.1628 33.4339 38.0131 32.851 41.9754 28.3046" stroke="#297935" stroke-width="3.89453" stroke-linecap="round"/>
<path d="M51.5851 21.6346C47.4003 19.9998 38.8224 19.5202 37.9894 30.6797C41.6921 31.43 49.5949 30.6715 51.5851 21.6346Z" fill="#2A943A" stroke="#2A943A" stroke-width="0.576968" stroke-linecap="round"/>
<path d="M40.7768 29.1997C42.1212 26.8045 44.7776 23.7687 48.8418 22.7502" stroke="#252424" stroke-width="0.576968" stroke-linecap="round"/>
<path d="M43.2324 3.13618C37.6872 2.98035 27.5493 5.98564 31.3599 19.2534C35.9684 18.5853 44.7949 14.4265 43.2324 3.13618Z" fill="#2A943A" stroke="#2A943A" stroke-width="0.710969" stroke-linecap="round"/>
<path d="M33.1429 15.4048C34.1673 12.2877 36.5849 8.12255 41.1246 6.01134" stroke="#252424" stroke-width="0.690702" stroke-linecap="round"/>
<defs>
<linearGradient id="paint0_linear_505_4491" x1="29.4999" y1="76.1458" x2="29.7432" y2="104.709" gradientUnits="userSpaceOnUse">
<stop offset="0.140852" stop-color="#AF5E41"/>
<stop offset="0.398366" stop-color="#CF754E"/>
<stop offset="0.703125" stop-color="#EF8B5F"/>
</linearGradient>
</defs>
</svg>
