<svg width="60" height="105" viewBox="0 0 60 105" fill="none" xmlns="http://www.w3.org/2000/svg">
<path d="M8.97523 99.0741L3.38103 71.3875C3.20624 70.5224 3.86732 69.7143 4.74981 69.7142L56.5657 69.7096L52.2176 98.9784C52.1499 99.4341 51.8581 99.8303 51.4411 100.026C33.4235 108.479 16.2466 103.592 9.64039 99.9926C9.29114 99.8023 9.05399 99.464 8.97523 99.0741Z" fill="url(#paint0_linear_495_3242)"/>
<path d="M30 78.4002C38.0161 78.4002 45.2796 77.8109 50.5448 76.8556C53.1753 76.3783 55.3195 75.8075 56.8119 75.1673C57.5571 74.8477 58.154 74.5048 58.5686 74.1372C58.9821 73.7706 59.2419 73.3534 59.2419 72.8897C59.2419 72.426 58.9821 72.0088 58.5686 71.6422C58.154 71.2746 57.5571 70.9317 56.8119 70.612C55.3195 69.9719 53.1753 69.4011 50.5448 68.9238C45.2796 67.9685 38.0161 67.3792 30 67.3792C21.984 67.3792 14.7205 67.9685 9.45533 68.9238C6.82479 69.4011 4.68063 69.9719 3.18821 70.612C2.44298 70.9317 1.84607 71.2746 1.43149 71.6422C1.01799 72.0088 0.758188 72.426 0.758188 72.8897C0.758188 73.3534 1.01799 73.7706 1.43149 74.1372C1.84607 74.5048 2.44298 74.8477 3.18821 75.1673C4.68063 75.8075 6.82479 76.3783 9.45533 76.8556C14.7205 77.8109 21.984 78.4002 30 78.4002Z" fill="#CE6C49" stroke="#CE6C49" stroke-width="0.500957"/>
<rect x="0.5" y="65.6257" width="59" height="7.51436" fill="#CE6C49"/>
<path d="M30 71.3865C38.0161 71.3865 45.2796 70.7972 50.5448 69.8419C53.1753 69.3646 55.3195 68.7938 56.8119 68.1537C57.5571 67.834 58.154 67.4911 58.5686 67.1235C58.9821 66.7569 59.2419 66.3397 59.2419 65.876C59.2419 65.4123 58.9821 64.9951 58.5686 64.6285C58.154 64.2609 57.5571 63.9181 56.8119 63.5984C55.3195 62.9582 53.1753 62.3874 50.5448 61.9101C45.2796 60.9549 38.0161 60.3655 30 60.3655C21.984 60.3655 14.7205 60.9549 9.45533 61.9101C6.82479 62.3874 4.68063 62.9582 3.18821 63.5984C2.44298 63.9181 1.84607 64.2609 1.43149 64.6285C1.01799 64.9951 0.758188 65.4123 0.758188 65.876C0.758188 66.3397 1.01799 66.7569 1.43149 67.1235C1.84607 67.4911 2.44298 67.834 3.18821 68.1537C4.68063 68.7938 6.82479 69.3646 9.45533 69.8419C14.7205 70.7972 21.984 71.3865 30 71.3865Z" fill="#E18259" stroke="#E18259" stroke-width="0.500957"/>
<path d="M53.9054 64.1423C51.3359 66.635 42.7763 67.6295 29.4238 67.6295C15.6218 67.6295 6.76706 65.9573 5.58643 64.1424C6.76706 62.2296 16.2588 58.6123 29.4238 58.6123C42.5888 58.6123 51.3359 61.5518 53.9054 64.1423Z" fill="#6F362E"/>
<ellipse cx="20.8449" cy="88.1688" rx="4.57759" ry="4.50862" fill="black"/>
<ellipse cx="39.1552" cy="88.1688" rx="4.57759" ry="4.50862" fill="black"/>
<ellipse cx="19.5732" cy="86.415" rx="0.762931" ry="0.751436" fill="white"/>
<ellipse cx="37.8838" cy="85.914" rx="0.762931" ry="0.751436" fill="white"/>
<ellipse cx="18.1745" cy="87.5422" rx="0.381466" ry="0.375718" fill="white"/>
<ellipse cx="36.4848" cy="87.0417" rx="0.381466" ry="0.375718" fill="white"/>
<path d="M24.4053 94.6812C26.4397 98.6888 34.069 98.6888 35.595 94.6812" stroke="black" stroke-width="1.50287" stroke-linecap="round"/>
<path d="M29.3685 60.8C28.978 49.1645 29.3685 27.8033 33.306 16.2812" stroke="#297935" stroke-width="3.89453" stroke-linecap="round"/>
<path d="M31.4341 22.4353C29.8941 24.4159 24.0438 23.8329 20.0816 19.2866" stroke="#297935" stroke-width="3.89453" stroke-linecap="round"/>
<path d="M10.472 12.6165C14.6568 10.9818 23.2346 10.5021 24.0677 21.6616C20.365 22.412 12.4621 21.6535 10.472 12.6165Z" fill="#2A943A" stroke="#2A943A" stroke-width="0.576968" stroke-linecap="round"/>
<path d="M21.2803 20.1826C19.9359 17.7875 17.2794 14.7516 13.2153 13.7331" stroke="#252424" stroke-width="0.576968" stroke-linecap="round"/>
<path d="M29.3998 40.4705C27.8598 42.451 22.0095 41.8681 18.0473 37.3217" stroke="#297935" stroke-width="3.89453" stroke-linecap="round"/>
<path d="M8.43758 30.6507C12.6224 29.016 21.2002 28.5363 22.0332 39.6958C18.3306 40.4461 10.4277 39.6876 8.43758 30.6507Z" fill="#2A943A" stroke="#2A943A" stroke-width="0.576968" stroke-linecap="round"/>
<path d="M19.2457 38.2168C17.9014 35.8216 15.2449 32.7858 11.1807 31.7673" stroke="#252424" stroke-width="0.576968" stroke-linecap="round"/>
<path d="M30.1056 50.4895C31.6456 52.4701 37.4959 51.8871 41.4582 47.3408" stroke="#297935" stroke-width="3.89453" stroke-linecap="round"/>
<path d="M51.0677 40.6703C46.8829 39.0355 38.305 38.5558 37.472 49.7153C41.1747 50.4657 49.0775 49.7072 51.0677 40.6703Z" fill="#2A943A" stroke="#2A943A" stroke-width="0.576968" stroke-linecap="round"/>
<path d="M40.2598 48.2363C41.6042 45.8412 44.2607 42.8053 48.3248 41.7868" stroke="#252424" stroke-width="0.576968" stroke-linecap="round"/>
<path d="M31.1228 31.4534C32.6628 33.4339 38.5131 32.851 42.4754 28.3046" stroke="#297935" stroke-width="3.89453" stroke-linecap="round"/>
<path d="M52.0851 21.6346C47.9003 19.9998 39.3224 19.5202 38.4894 30.6797C42.1921 31.43 50.0949 30.6715 52.0851 21.6346Z" fill="#2A943A" stroke="#2A943A" stroke-width="0.576968" stroke-linecap="round"/>
<path d="M41.2768 29.1997C42.6212 26.8045 45.2776 23.7687 49.3418 22.7502" stroke="#252424" stroke-width="0.576968" stroke-linecap="round"/>
<path d="M43.7324 3.13618C38.1872 2.98035 28.0493 5.98564 31.8599 19.2534C36.4684 18.5853 45.2949 14.4265 43.7324 3.13618Z" fill="#2A943A" stroke="#2A943A" stroke-width="0.710969" stroke-linecap="round"/>
<path d="M33.6429 15.4048C34.6673 12.2877 37.0849 8.12255 41.6246 6.01134" stroke="#252424" stroke-width="0.690702" stroke-linecap="round"/>
<defs>
<linearGradient id="paint0_linear_495_3242" x1="29.9999" y1="76.1458" x2="30.2432" y2="104.709" gradientUnits="userSpaceOnUse">
<stop offset="0.140852" stop-color="#AF5E41"/>
<stop offset="0.398366" stop-color="#CF754E"/>
<stop offset="0.703125" stop-color="#EF8B5F"/>
</linearGradient>
</defs>
</svg>
