<svg width="59" height="105" viewBox="0 0 59 105" fill="none" xmlns="http://www.w3.org/2000/svg">
<path d="M8.3481 99.0771L2.8369 71.3839C2.66494 70.5199 3.32594 69.7143 4.20694 69.7142L55.221 69.7096L50.9379 98.9813C50.8715 99.4354 50.5825 99.8312 50.1681 100.029C32.4271 108.477 15.5145 103.594 9.00604 99.9944C8.65972 99.8029 8.42534 99.4652 8.3481 99.0771Z" fill="url(#paint0_linear_337_3777)"/>
<path d="M29.0555 78.4005C36.9511 78.4005 44.1056 77.8111 49.292 76.8557C51.8832 76.3784 53.9956 75.8075 55.4662 75.167C56.2005 74.8472 56.7889 74.5041 57.1976 74.1362C57.6055 73.769 57.8606 73.3521 57.8606 72.8899C57.8606 72.4278 57.6055 72.0109 57.1976 71.6437C56.7889 71.2758 56.2005 70.9327 55.4662 70.6128C53.9956 69.9724 51.8832 69.4015 49.292 68.9242C44.1056 67.9688 36.9511 67.3794 29.0555 67.3794C21.16 67.3794 14.0054 67.9688 8.81904 68.9242C6.22789 69.4015 4.11547 69.9724 2.64492 70.6128C1.91057 70.9327 1.3222 71.2758 0.91352 71.6437C0.505624 72.0109 0.250498 72.4278 0.250498 72.8899C0.250498 73.3521 0.505624 73.769 0.91352 74.1362C1.3222 74.5041 1.91057 74.8472 2.64492 75.167C4.11547 75.8075 6.22789 76.3784 8.81904 76.8557C14.0054 77.8111 21.16 78.4005 29.0555 78.4005Z" fill="#CE6C49" stroke="#CE6C49" stroke-width="0.500957"/>
<rect y="65.626" width="58.111" height="7.51436" fill="#CE6C49"/>
<path d="M29.0555 71.3868C36.9511 71.3868 44.1056 70.7974 49.292 69.842C51.8832 69.3647 53.9956 68.7938 55.4662 68.1534C56.2005 67.8335 56.7889 67.4904 57.1976 67.1225C57.6055 66.7553 57.8606 66.3384 57.8606 65.8763C57.8606 65.4141 57.6055 64.9972 57.1976 64.63C56.7889 64.2621 56.2005 63.919 55.4662 63.5992C53.9956 62.9587 51.8832 62.3878 49.292 61.9105C44.1056 60.9551 36.9511 60.3657 29.0555 60.3657C21.16 60.3657 14.0054 60.9551 8.81904 61.9105C6.22789 62.3878 4.11547 62.9587 2.64492 63.5992C1.91057 63.919 1.3222 64.2621 0.91352 64.63C0.505624 64.9972 0.250498 65.4141 0.250498 65.8763C0.250498 66.3384 0.505624 66.7553 0.91352 67.1225C1.3222 67.4904 1.91057 67.8335 2.64492 68.1534C4.11547 68.7938 6.22789 69.3647 8.81904 69.842C14.0054 70.7974 21.16 71.3868 29.0555 71.3868Z" fill="#E18259" stroke="#E18259" stroke-width="0.500957"/>
<path d="M52.6007 64.1423C50.07 66.635 41.6394 67.6295 28.488 67.6295C14.8939 67.6295 6.17261 65.9573 5.00977 64.1424C6.17261 62.2296 15.5213 58.6123 28.488 58.6123C41.4546 58.6123 50.07 61.5518 52.6007 64.1423Z" fill="#6F362E"/>
<circle cx="20.0384" cy="88.1688" r="4.50862" fill="black"/>
<circle cx="38.0728" cy="88.1688" r="4.50862" fill="black"/>
<circle cx="18.7859" cy="86.415" r="0.751436" fill="white"/>
<circle cx="36.8205" cy="85.914" r="0.751436" fill="white"/>
<circle cx="17.4082" cy="87.5422" r="0.375718" fill="white"/>
<circle cx="35.4426" cy="87.0417" r="0.375718" fill="white"/>
<path d="M23.5452 94.6812C25.5489 98.6888 33.0632 98.6888 34.5662 94.6812" stroke="black" stroke-width="1.50287" stroke-linecap="round"/>
<path d="M28.4336 60.8C28.0489 49.1645 28.4336 27.8033 32.3117 16.2812" stroke="#297935" stroke-width="3.89453" stroke-linecap="round"/>
<path d="M30.4681 22.4353C28.9513 24.4159 23.1892 23.8329 19.2867 19.2866" stroke="#297935" stroke-width="3.89453" stroke-linecap="round"/>
<path d="M9.82189 12.6165C13.9436 10.9818 22.3922 10.5021 23.2127 21.6616C19.5658 22.412 11.782 21.6535 9.82189 12.6165Z" fill="#2A943A" stroke="#2A943A" stroke-width="0.576968" stroke-linecap="round"/>
<path d="M20.4673 20.1826C19.1432 17.7875 16.5267 14.7516 12.5238 13.7331" stroke="#252424" stroke-width="0.576968" stroke-linecap="round"/>
<path d="M28.4644 40.4705C26.9475 42.451 21.1854 41.8681 17.2829 37.3217" stroke="#297935" stroke-width="3.89453" stroke-linecap="round"/>
<path d="M7.81798 30.6507C11.9397 29.016 20.3883 28.5363 21.2088 39.6958C17.5619 40.4461 9.77812 39.6876 7.81798 30.6507Z" fill="#2A943A" stroke="#2A943A" stroke-width="0.576968" stroke-linecap="round"/>
<path d="M18.4633 38.2168C17.1391 35.8216 14.5227 32.7858 10.5198 31.7673" stroke="#252424" stroke-width="0.576968" stroke-linecap="round"/>
<path d="M29.1595 50.4895C30.6764 52.4701 36.4385 51.8871 40.341 47.3407" stroke="#297935" stroke-width="3.89453" stroke-linecap="round"/>
<path d="M49.8058 40.6703C45.6841 39.0355 37.2355 38.5558 36.415 49.7153C40.0619 50.4657 47.8457 49.7072 49.8058 40.6703Z" fill="#2A943A" stroke="#2A943A" stroke-width="0.576968" stroke-linecap="round"/>
<path d="M39.1608 48.2363C40.4849 45.8412 43.1013 42.8053 47.1042 41.7868" stroke="#252424" stroke-width="0.576968" stroke-linecap="round"/>
<path d="M30.1615 31.4534C31.6783 33.4339 37.4405 32.851 41.343 28.3046" stroke="#297935" stroke-width="3.89453" stroke-linecap="round"/>
<path d="M50.8079 21.6346C46.6861 19.9998 38.2375 19.5202 37.4171 30.6797C41.0639 31.43 48.8477 30.6715 50.8079 21.6346Z" fill="#2A943A" stroke="#2A943A" stroke-width="0.576968" stroke-linecap="round"/>
<path d="M40.1625 29.1997C41.4866 26.8045 44.103 23.7687 48.1059 22.7502" stroke="#252424" stroke-width="0.576968" stroke-linecap="round"/>
<path d="M42.581 3.13618C37.1193 2.98035 27.1342 5.98564 30.8874 19.2534C35.4265 18.5853 44.12 14.4265 42.581 3.13618Z" fill="#2A943A" stroke="#2A943A" stroke-width="0.710969" stroke-linecap="round"/>
<path d="M32.6436 15.4048C33.6524 12.2877 36.0336 8.12255 40.505 6.01134" stroke="#252424" stroke-width="0.690702" stroke-linecap="round"/>
<defs>
<linearGradient id="paint0_linear_337_3777" x1="29.0554" y1="76.1458" x2="29.3024" y2="104.709" gradientUnits="userSpaceOnUse">
<stop offset="0.140852" stop-color="#AF5E41"/>
<stop offset="0.398366" stop-color="#CF754E"/>
<stop offset="0.703125" stop-color="#EF8B5F"/>
</linearGradient>
</defs>
</svg>
