<svg width="101" height="92" viewBox="0 0 101 92" fill="none" xmlns="http://www.w3.org/2000/svg">
<path d="M12.8708 82.9532L5.37995 45.3981C4.97397 43.3628 6.53074 41.4647 8.60615 41.4645L80.2658 41.458L74.2161 82.7095C74.0592 83.7795 73.3824 84.7119 72.4012 85.1667C47.6001 96.6624 24.0334 90.1804 14.427 85.1005C13.6024 84.6645 13.0532 83.8679 12.8708 82.9532Z" fill="#D47951"/>
<path d="M42.707 54.1349C54.05 54.1349 64.3344 53.2902 71.7965 51.9188C75.5227 51.2339 78.5747 50.4125 80.709 49.4851C81.774 49.0223 82.6437 48.5192 83.2564 47.9689C83.8671 47.4203 84.2848 46.7656 84.2848 46.0118C84.2848 45.2579 83.8671 44.6032 83.2564 44.0547C82.6437 43.5044 81.774 43.0012 80.709 42.5384C78.5747 41.611 75.5227 40.7896 71.7965 40.1048C64.3344 38.7333 54.05 37.8886 42.707 37.8886C31.364 37.8886 21.0796 38.7333 13.6175 40.1048C9.89129 40.7896 6.83933 41.611 4.70499 42.5384C3.64001 43.0012 2.77029 43.5044 2.1576 44.0547C1.54685 44.6032 1.12914 45.2579 1.12914 46.0118C1.12914 46.7656 1.54685 47.4203 2.1576 47.9689C2.77029 48.5192 3.64001 49.0223 4.70499 49.4851C6.83933 50.4125 9.89129 51.2339 13.6175 51.9188C21.0796 53.2902 31.364 54.1349 42.707 54.1349Z" fill="#CE6C49" stroke="#CE6C49" stroke-width="1.17983"/>
<rect x="1" y="35.6089" width="83.4141" height="10.7618" fill="#CE6C49"/>
<path d="M42.707 44.0905C54.05 44.0905 64.3344 43.2458 71.7965 41.8743C75.5227 41.1895 78.5747 40.3681 80.709 39.4407C81.774 38.9779 82.6437 38.4747 83.2564 37.9244C83.8671 37.3759 84.2848 36.7212 84.2848 35.9673C84.2848 35.2135 83.8671 34.5588 83.2564 34.0102C82.6437 33.4599 81.774 32.9568 80.709 32.494C78.5747 31.5666 75.5227 30.7452 71.7965 30.0603C64.3344 28.6888 54.05 27.8442 42.707 27.8442C31.364 27.8442 21.0796 28.6888 13.6175 30.0603C9.89129 30.7452 6.83933 31.5666 4.70499 32.494C3.64001 32.9568 2.77029 33.4599 2.1576 34.0102C1.54685 34.5588 1.12914 35.2135 1.12914 35.9673C1.12914 36.7212 1.54685 37.3759 2.1576 37.9244C2.77029 38.4747 3.64001 38.9779 4.70499 39.4407C6.83933 40.3681 9.89129 41.1895 13.6175 41.8743C21.0796 43.2458 31.364 44.0905 42.707 44.0905Z" fill="#CE6C49" stroke="#CE6C49" stroke-width="1.17983"/>
<path d="M65.4936 32.3384L79.3233 20.3438L78.9113 19.8709L65.0816 31.8656L64.2595 32.9957L65.4936 32.3384Z" fill="#111111"/>
<path d="M67.9648 35.1758L81.7945 23.1812L81.3825 22.7083L67.5528 34.703L66.7307 35.8331L67.9648 35.1758Z" fill="#111111"/>
<path d="M63.0213 29.502L76.8511 17.5073L76.4391 17.0345L62.6094 29.0292L61.7872 30.1593L63.0213 29.502Z" fill="#111111"/>
<path d="M96.3815 4.62705C95.6192 5.79585 93.9959 7.61696 93.0592 8.62247C92.9116 8.78087 92.6595 8.7753 92.5173 8.61204L92.3032 8.3663C92.181 8.22612 92.1837 8.01693 92.3077 7.87854C93.6827 6.34494 94.8185 4.82828 95.3674 3.9031C95.5051 3.67114 95.844 3.62525 96.0213 3.82874L96.3475 4.2032C96.4514 4.32247 96.4678 4.49463 96.3815 4.62705Z" fill="#111111"/>
<path d="M92.5792 10.491L91.3626 11.5463C91.2096 11.6789 90.9778 11.6627 90.8448 11.5101L89.2451 9.67391C89.1121 9.52128 89.1283 9.29001 89.2812 9.15737L90.505 8.09591C90.5482 8.05844 90.5996 8.03159 90.6551 8.01748L92.0103 7.67275C92.1447 7.63856 92.287 7.68291 92.378 7.78738L93.0982 8.61403C93.185 8.71365 93.2114 8.85215 93.1672 8.97654L92.6843 10.337C92.6632 10.3965 92.627 10.4496 92.5792 10.491Z" fill="#111111"/>
<path d="M90.4087 10.8436C91.7638 12.399 92.4414 13.1767 92.6623 14.0317C92.8651 14.8165 92.8071 15.6457 92.4971 16.3946C92.1593 17.2106 91.3801 17.8864 89.8217 19.238L79.2954 28.3676C79.2174 28.4352 79.1785 28.469 79.1356 28.48C79.0963 28.4901 79.0548 28.4872 79.0172 28.4717C78.9763 28.4548 78.9424 28.416 78.8747 28.3382L70.9517 19.2446C70.884 19.1668 70.8501 19.1279 70.839 19.0852C70.8289 19.0459 70.8318 19.0045 70.8473 18.967C70.8642 18.9262 70.9031 18.8924 70.9811 18.8248L81.5074 9.69524C83.0658 8.34361 83.845 7.6678 84.7019 7.44761C85.4884 7.24551 86.3194 7.30362 87.0701 7.61321C87.888 7.95051 88.5656 8.72819 89.9207 10.2836L90.4087 10.8436Z" fill="#111111"/>
<path d="M88.7811 14.3604C89.2091 14.8517 89.157 15.5961 88.6648 16.023L79.9759 23.559C79.4837 23.9859 78.7376 23.9338 78.3096 23.4425L75.9492 20.7334C75.5212 20.2421 75.5732 19.4977 76.0655 19.0708L84.7544 11.5348C85.2466 11.1079 85.9927 11.1601 86.4207 11.6514L88.7811 14.3604Z" fill="#A983B6"/>
<path d="M76.5044 33.4853C72.8717 37.0553 60.7702 38.4796 41.8924 38.4796C22.3792 38.4796 9.86034 36.0846 8.19116 33.4855C9.86034 30.7459 23.2797 25.5654 41.8924 25.5654C60.505 25.5654 72.8717 29.7753 76.5044 33.4853Z" fill="#6F362E"/>
<path d="M42.8547 25.5012C42.9722 21.9554 42.8547 15.4458 41.6702 11.9346" stroke="#297935" stroke-width="3" stroke-linecap="round"/>
<path d="M25.3023 31.7167C25.3979 28.831 25.3023 23.5333 24.3383 20.6758" stroke="#297935" stroke-width="2.44149" stroke-linecap="round"/>
<path d="M57.309 28.5914C57.2055 25.4652 57.309 19.726 58.3534 16.6304" stroke="#297935" stroke-width="2.64494" stroke-linecap="round"/>
<path d="M39.926 1.19336C36.5767 1.19336 36.1381 5.17159 36.3374 7.1607C33.4666 7.63809 32.3502 9.74655 32.1509 10.7411C31.6725 13.128 34.7426 14.9182 36.3374 15.515C35.859 16.4698 36.1688 18.1081 36.9354 18.4987C39.278 19.6921 41.3214 18.2997 42.3182 17.3052C44.7106 19.2147 46.5049 18.4987 47.103 17.9019C49.4953 16.1117 48.6979 13.9237 47.7011 12.5313C50.0934 9.66699 49.8941 7.35961 49.4953 6.56397C49.0169 5.13181 45.7074 5.17159 44.1125 5.3705C42.6771 2.02879 40.7234 1.19336 39.926 1.19336Z" fill="#A7916E"/>
<path d="M22.9187 11.9346C20.1929 11.9346 19.836 15.1722 19.9982 16.791C17.6618 17.1795 16.7533 18.8954 16.5911 19.7048C16.2017 21.6474 18.7003 23.1043 19.9982 23.5899C19.6089 24.3669 19.861 25.7003 20.4849 26.0181C22.3914 26.9894 24.0543 25.8562 24.8656 25.0468C26.8126 26.6009 28.2728 26.0181 28.7595 25.5325C30.7065 24.0756 30.0575 22.2949 29.2463 21.1617C31.1933 18.8307 31.031 16.9528 30.7065 16.3053C30.3171 15.1398 27.6238 15.1722 26.3258 15.334C25.1576 12.6145 23.5677 11.9346 22.9187 11.9346Z" fill="#A7916E"/>
<path d="M59.8913 7.16113C62.8442 7.16113 63.2309 10.6685 63.0552 12.4222C65.5862 12.8431 66.5704 14.702 66.7462 15.5789C67.168 17.6833 64.4613 19.2617 63.0552 19.7878C63.4769 20.6295 63.2038 22.074 62.528 22.4183C60.4626 23.4705 58.661 22.2429 57.7822 21.3661C55.673 23.0496 54.091 22.4183 53.5637 21.8922C51.4545 20.3139 52.1576 18.3848 53.0364 17.1572C50.9272 14.6319 51.103 12.5976 51.4545 11.8961C51.8763 10.6335 54.7941 10.6685 56.2003 10.8439C57.4658 7.89769 59.1883 7.16113 59.8913 7.16113Z" fill="#A7916E"/>
<path d="M41.4008 8.35449C40.4922 8.35449 40.3732 9.43368 40.4273 9.97327C39.6485 10.1028 39.3457 10.6747 39.2916 10.9445C39.1618 11.5921 39.9946 12.0777 40.4273 12.2396C40.2975 12.4986 40.3815 12.943 40.5895 13.049C41.225 13.3727 41.7793 12.995 42.0497 12.7252C42.6987 13.2432 43.1854 13.049 43.3477 12.8871C43.9967 12.4014 43.7803 11.8079 43.5099 11.4302C44.1589 10.6532 44.1048 10.0272 43.9967 9.81139C43.8669 9.42289 42.9691 9.43368 42.5364 9.48764C42.1471 8.58112 41.6171 8.35449 41.4008 8.35449Z" fill="#FCEACC"/>
<path d="M24.1187 17.7622C23.3793 17.7622 23.2825 18.6405 23.3265 19.0796C22.6927 19.185 22.4462 19.6505 22.4022 19.8701C22.2966 20.397 22.9744 20.7922 23.3265 20.924C23.2209 21.1348 23.2892 21.4965 23.4585 21.5827C23.9757 21.8462 24.4268 21.5388 24.6469 21.3192C25.175 21.7408 25.5711 21.5827 25.7032 21.451C26.2313 21.0557 26.0553 20.5727 25.8352 20.2653C26.3634 19.6329 26.3194 19.1235 26.2313 18.9479C26.1257 18.6317 25.3951 18.6405 25.043 18.6844C24.7261 17.9466 24.2948 17.7622 24.1187 17.7622Z" fill="#FCEACC"/>
<path d="M58.5909 13.4736C59.3919 13.4736 59.4968 14.4251 59.4492 14.9008C60.1358 15.015 60.4028 15.5193 60.4504 15.7571C60.5649 16.328 59.8306 16.7562 59.4492 16.8989C59.5636 17.1272 59.4895 17.5191 59.3062 17.6125C58.7459 17.8979 58.2572 17.5649 58.0188 17.3271C57.4466 17.7838 57.0174 17.6125 56.8744 17.4698C56.3022 17.0416 56.4929 16.5183 56.7314 16.1853C56.1592 15.5002 56.2069 14.9484 56.3022 14.7581C56.4167 14.4156 57.2082 14.4251 57.5896 14.4727C57.9329 13.6734 58.4002 13.4736 58.5909 13.4736Z" fill="#FCEACC"/>
</svg>
