<svg width="101" height="92" viewBox="0 0 101 92" fill="none" xmlns="http://www.w3.org/2000/svg">
<path d="M12.8709 82.9532L5.38001 45.3981C4.97403 43.3628 6.5308 41.4647 8.60621 41.4645L80.2658 41.458L74.2161 82.7095C74.0592 83.7795 73.3825 84.7119 72.4013 85.1667C47.6002 96.6624 24.0334 90.1804 14.4271 85.1005C13.6025 84.6645 13.0533 83.8679 12.8709 82.9532Z" fill="#D47951"/>
<path d="M42.7069 54.1349C54.0499 54.1349 64.3343 53.2902 71.7964 51.9188C75.5226 51.2339 78.5746 50.4125 80.7089 49.4851C81.7739 49.0223 82.6436 48.5192 83.2563 47.9689C83.8671 47.4203 84.2848 46.7656 84.2848 46.0118C84.2848 45.2579 83.8671 44.6032 83.2563 44.0547C82.6436 43.5044 81.7739 43.0012 80.7089 42.5384C78.5746 41.611 75.5226 40.7896 71.7964 40.1048C64.3343 38.7333 54.0499 37.8886 42.7069 37.8886C31.3639 37.8886 21.0796 38.7333 13.6174 40.1048C9.89123 40.7896 6.83927 41.611 4.70493 42.5384C3.63995 43.0012 2.77022 43.5044 2.15754 44.0547C1.54679 44.6032 1.12908 45.2579 1.12908 46.0118C1.12908 46.7656 1.54679 47.4203 2.15754 47.9689C2.77022 48.5192 3.63995 49.0223 4.70493 49.4851C6.83927 50.4125 9.89123 51.2339 13.6174 51.9188C21.0796 53.2902 31.3639 54.1349 42.7069 54.1349Z" fill="#CE6C49" stroke="#CE6C49" stroke-width="1.17983"/>
<rect x="1" y="35.6089" width="83.4141" height="10.7618" fill="#CE6C49"/>
<path d="M42.7069 44.0905C54.0499 44.0905 64.3343 43.2458 71.7964 41.8743C75.5226 41.1895 78.5746 40.3681 80.7089 39.4407C81.7739 38.9779 82.6436 38.4747 83.2563 37.9244C83.8671 37.3759 84.2848 36.7212 84.2848 35.9673C84.2848 35.2135 83.8671 34.5588 83.2563 34.0102C82.6436 33.4599 81.7739 32.9568 80.7089 32.494C78.5746 31.5666 75.5226 30.7452 71.7964 30.0603C64.3343 28.6888 54.0499 27.8442 42.7069 27.8442C31.3639 27.8442 21.0796 28.6888 13.6174 30.0603C9.89123 30.7452 6.83927 31.5666 4.70493 32.494C3.63995 32.9568 2.77022 33.4599 2.15754 34.0102C1.54679 34.5588 1.12908 35.2135 1.12908 35.9673C1.12908 36.7212 1.54679 37.3759 2.15754 37.9244C2.77022 38.4747 3.63995 38.9779 4.70493 39.4407C6.83927 40.3681 9.89123 41.1895 13.6174 41.8743C21.0796 43.2458 31.3639 44.0905 42.7069 44.0905Z" fill="#CE6C49" stroke="#CE6C49" stroke-width="1.17983"/>
<path d="M65.4935 32.3384L79.3232 20.3438L78.9113 19.8709L65.0815 31.8656L64.2594 32.9957L65.4935 32.3384Z" fill="#111111"/>
<path d="M67.9647 35.1758L81.7944 23.1812L81.3825 22.7083L67.5527 34.703L66.7306 35.8331L67.9647 35.1758Z" fill="#111111"/>
<path d="M63.0213 29.502L76.8511 17.5073L76.4391 17.0345L62.6094 29.0292L61.7872 30.1593L63.0213 29.502Z" fill="#111111"/>
<path d="M96.3815 4.62705C95.6192 5.79585 93.9959 7.61696 93.0592 8.62247C92.9116 8.78087 92.6595 8.7753 92.5173 8.61204L92.3032 8.3663C92.181 8.22612 92.1837 8.01693 92.3077 7.87854C93.6827 6.34494 94.8185 4.82828 95.3674 3.9031C95.5051 3.67114 95.844 3.62525 96.0213 3.82874L96.3475 4.2032C96.4514 4.32247 96.4678 4.49463 96.3815 4.62705Z" fill="#111111"/>
<path d="M92.5793 10.491L91.3626 11.5463C91.2097 11.6789 90.9779 11.6627 90.8449 11.5101L89.2451 9.67391C89.1121 9.52128 89.1283 9.29001 89.2813 9.15737L90.5051 8.09591C90.5483 8.05844 90.5997 8.03159 90.6551 8.01748L92.0104 7.67275C92.1448 7.63856 92.287 7.68291 92.3781 7.78738L93.0983 8.61403C93.1851 8.71365 93.2115 8.85215 93.1673 8.97654L92.6844 10.337C92.6633 10.3965 92.6271 10.4496 92.5793 10.491Z" fill="#111111"/>
<path d="M90.4086 10.8436C91.7637 12.399 92.4413 13.1767 92.6623 14.0317C92.8651 14.8165 92.8071 15.6457 92.497 16.3946C92.1592 17.2106 91.38 17.8864 89.8216 19.238L79.2953 28.3676C79.2174 28.4352 79.1784 28.469 79.1356 28.48C79.0962 28.4901 79.0547 28.4872 79.0172 28.4717C78.9763 28.4548 78.9424 28.416 78.8746 28.3382L70.9517 19.2446C70.8839 19.1668 70.85 19.1279 70.839 19.0852C70.8288 19.0459 70.8317 19.0045 70.8472 18.967C70.8641 18.9262 70.9031 18.8924 70.981 18.8248L81.5073 9.69524C83.0657 8.34361 83.8449 7.6678 84.7018 7.44761C85.4883 7.24551 86.3194 7.30362 87.0701 7.61321C87.8879 7.95051 88.5655 8.72819 89.9207 10.2836L90.4086 10.8436Z" fill="#111111"/>
<path d="M88.7811 14.3604C89.2092 14.8517 89.1571 15.5961 88.6649 16.023L79.976 23.559C79.4837 23.9859 78.7377 23.9338 78.3096 23.4425L75.9493 20.7334C75.5212 20.2421 75.5733 19.4977 76.0655 19.0708L84.7544 11.5348C85.2467 11.1079 85.9927 11.1601 86.4208 11.6514L88.7811 14.3604Z" fill="#A983B6"/>
<path d="M76.5044 33.4853C72.8717 37.0553 60.7702 38.4796 41.8924 38.4796C22.3792 38.4796 9.86034 36.0846 8.19116 33.4855C9.86034 30.7459 23.2797 25.5654 41.8924 25.5654C60.505 25.5654 72.8717 29.7753 76.5044 33.4853Z" fill="#6F362E"/>
<path d="M42.8548 25.5012C42.9723 21.9554 42.8548 15.4458 41.6703 11.9346" stroke="#297935" stroke-width="3" stroke-linecap="round"/>
<path d="M25.3024 31.7167C25.398 28.831 25.3024 23.5333 24.3384 20.6758" stroke="#297935" stroke-width="2.44149" stroke-linecap="round"/>
<path d="M57.3089 28.5914C57.2053 25.4652 57.3089 19.726 58.3533 16.6304" stroke="#297935" stroke-width="2.64494" stroke-linecap="round"/>
<path d="M39.9259 1.19336C36.5766 1.19336 36.138 5.17159 36.3374 7.1607C33.4665 7.63809 32.3502 9.74655 32.1509 10.7411C31.6724 13.128 34.7425 14.9182 36.3374 15.515C35.859 16.4698 36.1687 18.1081 36.9353 18.4987C39.278 19.6921 41.3213 18.2997 42.3182 17.3052C44.7105 19.2147 46.5048 18.4987 47.1029 17.9019C49.4953 16.1117 48.6978 13.9237 47.701 12.5313C50.0934 9.66699 49.894 7.35961 49.4953 6.56397C49.0168 5.13181 45.7074 5.17159 44.1124 5.3705C42.677 2.02879 40.7233 1.19336 39.9259 1.19336Z" fill="#A7916E"/>
<path d="M22.9186 11.9346C20.1928 11.9346 19.8359 15.1722 19.9981 16.791C17.6617 17.1795 16.7532 18.8954 16.591 19.7048C16.2016 21.6474 18.7002 23.1043 19.9981 23.5899C19.6088 24.3669 19.8609 25.7003 20.4847 26.0181C22.3912 26.9894 24.0542 25.8562 24.8654 25.0468C26.8124 26.6009 28.2727 26.0181 28.7594 25.5325C30.7064 24.0756 30.0574 22.2949 29.2462 21.1617C31.1931 18.8307 31.0309 16.9528 30.7064 16.3053C30.317 15.1398 27.6237 15.1722 26.3257 15.334C25.1575 12.6145 23.5675 11.9346 22.9186 11.9346Z" fill="#A7916E"/>
<path d="M59.8913 7.16113C62.8442 7.16113 63.2309 10.6685 63.0552 12.4222C65.5862 12.8431 66.5704 14.702 66.7462 15.5789C67.168 17.6833 64.4613 19.2617 63.0552 19.7878C63.4769 20.6295 63.2038 22.074 62.528 22.4183C60.4626 23.4705 58.661 22.2429 57.7822 21.3661C55.673 23.0496 54.091 22.4183 53.5637 21.8922C51.4545 20.3139 52.1576 18.3848 53.0364 17.1572C50.9272 14.6319 51.103 12.5976 51.4545 11.8961C51.8763 10.6335 54.7941 10.6685 56.2003 10.8439C57.4658 7.89769 59.1883 7.16113 59.8913 7.16113Z" fill="#A7916E"/>
<path d="M41.4008 8.35449C40.4922 8.35449 40.3732 9.43368 40.4273 9.97327C39.6485 10.1028 39.3457 10.6747 39.2917 10.9445C39.1619 11.5921 39.9947 12.0777 40.4273 12.2396C40.2976 12.4986 40.3816 12.943 40.5895 13.049C41.225 13.3727 41.7794 12.995 42.0498 12.7252C42.6988 13.2432 43.1855 13.049 43.3477 12.8871C43.9967 12.4014 43.7804 11.8079 43.51 11.4302C44.159 10.6532 44.1049 10.0272 43.9967 9.81139C43.8669 9.42289 42.9692 9.43368 42.5365 9.48764C42.1471 8.58112 41.6171 8.35449 41.4008 8.35449Z" fill="#FCEACC"/>
<path d="M24.1187 17.7622C23.3792 17.7622 23.2824 18.6405 23.3264 19.0796C22.6926 19.185 22.4462 19.6505 22.4022 19.8701C22.2965 20.397 22.9743 20.7922 23.3264 20.924C23.2208 21.1348 23.2892 21.4965 23.4584 21.5827C23.9756 21.8462 24.4267 21.5388 24.6468 21.3192C25.175 21.7408 25.5711 21.5827 25.7031 21.451C26.2313 21.0557 26.0552 20.5727 25.8352 20.2653C26.3633 19.6329 26.3193 19.1235 26.2313 18.9479C26.1257 18.6317 25.395 18.6405 25.0429 18.6844C24.726 17.9466 24.2947 17.7622 24.1187 17.7622Z" fill="#FCEACC"/>
<path d="M58.5909 13.4736C59.3919 13.4736 59.4968 14.4251 59.4492 14.9008C60.1358 15.015 60.4028 15.5193 60.4504 15.7571C60.5649 16.328 59.8306 16.7562 59.4492 16.8989C59.5636 17.1272 59.4895 17.5191 59.3062 17.6125C58.7459 17.8979 58.2572 17.5649 58.0188 17.3271C57.4466 17.7838 57.0174 17.6125 56.8744 17.4698C56.3022 17.0416 56.4929 16.5183 56.7314 16.1853C56.1592 15.5002 56.2069 14.9484 56.3022 14.7581C56.4167 14.4156 57.2082 14.4251 57.5896 14.4727C57.9329 13.6734 58.4002 13.4736 58.5909 13.4736Z" fill="#FCEACC"/>
</svg>
