<svg width="152" height="139" viewBox="0 0 152 139" fill="none" xmlns="http://www.w3.org/2000/svg">
<path d="M19.7238 124.297L8.79761 69.394C8.07096 65.7426 10.8642 62.3384 14.5871 62.3381L120.899 62.3285L111.897 123.851C111.616 125.77 110.408 127.443 108.645 128.252C71.9347 145.096 37.1046 135.714 22.5214 128.141C21.0372 127.37 20.0502 125.937 19.7238 124.297Z" fill="url(#paint0_linear_334_3188)"/>
<path d="M64.5605 81.5592C81.5823 81.5592 97.02 80.2888 108.227 78.2244C113.821 77.1939 118.414 75.9561 121.633 74.5539C123.239 73.8546 124.563 73.0892 125.501 72.2442C126.437 71.4023 127.101 70.3755 127.101 69.1751C127.101 67.9747 126.437 66.9479 125.501 66.1059C124.563 65.2609 123.239 64.4956 121.633 63.7962C118.414 62.3941 113.821 61.1563 108.227 60.1257C97.02 58.0613 81.5823 56.791 64.5605 56.791C47.5387 56.791 32.101 58.0613 20.8945 60.1257C15.2999 61.1563 10.7069 62.3941 7.48752 63.7962C5.88173 64.4956 4.55814 65.2609 3.61954 66.1059C2.68423 66.9479 2.02014 67.9747 2.02014 69.1751C2.02014 70.3755 2.68423 71.4023 3.61954 72.2442C4.55814 73.0892 5.88173 73.8546 7.48752 74.5539C10.7069 75.9561 15.2999 77.1939 20.8945 78.2244C32.101 80.2888 47.5387 81.5592 64.5605 81.5592Z" fill="#CE6C49" stroke="#CE6C49" stroke-width="2.11694"/>
<rect x="2" y="53.5351" width="125.121" height="16.1794" fill="#CE6C49"/>
<path d="M64.5605 66.4581C81.5823 66.4581 97.02 65.1877 108.227 63.1234C113.821 62.0928 118.414 60.855 121.633 59.4529C123.239 58.7535 124.563 57.9881 125.501 57.1432C126.437 56.3012 127.101 55.2744 127.101 54.074C127.101 52.8736 126.437 51.8468 125.501 51.0048C124.563 50.1599 123.239 49.3945 121.633 48.6951C118.414 47.293 113.821 46.0552 108.227 45.0246C97.02 42.9603 81.5823 41.6899 64.5605 41.6899C47.5387 41.6899 32.101 42.9603 20.8945 45.0246C15.2999 46.0552 10.7069 47.293 7.48752 48.6951C5.88173 49.3945 4.55814 50.1599 3.61954 51.0048C2.68423 51.8468 2.02014 52.8736 2.02014 54.074C2.02014 55.2744 2.68423 56.3012 3.61954 57.1432C4.55814 57.9881 5.88173 58.7535 7.48752 59.4529C10.7069 60.855 15.2999 62.0928 20.8945 63.1234C32.101 65.1877 47.5387 66.4581 64.5605 66.4581Z" fill="#E18259" stroke="#E18259" stroke-width="2.11694"/>
<path d="M98.7412 48.6189L119.486 30.5859L118.868 29.875L98.1233 47.908L96.8901 49.6071L98.7412 48.6189Z" fill="#111111"/>
<path d="M102.448 52.8847L123.193 34.8517L122.575 34.1408L101.83 52.1738L100.597 53.8729L102.448 52.8847Z" fill="#111111"/>
<path d="M95.0327 44.3538L115.777 26.3208L115.159 25.6099L94.4148 43.6429L93.1816 45.342L95.0327 44.3538Z" fill="#111111"/>
<path d="M145.031 7.02143C143.892 8.74724 141.568 11.3686 140.17 12.8772C139.905 13.1622 139.454 13.1515 139.199 12.8583L139.018 12.6499C138.799 12.3982 138.804 12.0225 139.026 11.7735C140.989 9.57138 142.62 7.40066 143.464 6.01443C143.716 5.60074 144.327 5.51929 144.645 5.8848L144.971 6.2607C145.158 6.4749 145.187 6.78451 145.031 7.02143Z" fill="#111111"/>
<path d="M139.348 15.7912L137.625 17.2887C137.351 17.527 136.936 17.4979 136.697 17.2238L134.438 14.625C134.2 14.3509 134.229 13.9354 134.503 13.6971L136.239 12.1885C136.316 12.1211 136.408 12.0729 136.508 12.0475L138.452 11.5519C138.693 11.4905 138.948 11.5701 139.111 11.7577L140.107 12.9036C140.262 13.0825 140.31 13.3312 140.23 13.5546L139.536 15.5144C139.499 15.6214 139.434 15.7167 139.348 15.7912Z" fill="#111111"/>
<path d="M135.748 15.8808C137.447 17.8355 138.297 18.8129 138.717 19.8323C139.516 21.7743 139.362 23.9782 138.3 25.79C137.743 26.7412 136.765 27.5908 134.811 29.2899L119.51 42.5905C119.37 42.7119 119.3 42.7726 119.224 42.7924C119.153 42.8106 119.079 42.8053 119.011 42.7776C118.938 42.7473 118.877 42.6774 118.756 42.5378L106.986 28.9977C106.864 28.858 106.804 28.7882 106.784 28.7114C106.766 28.6409 106.771 28.5664 106.799 28.4992C106.829 28.4259 106.899 28.3652 107.039 28.2437L122.339 14.9432C124.294 13.244 125.271 12.3944 126.291 11.9748C128.233 11.1754 130.436 11.3296 132.248 12.3914C133.199 12.9488 134.049 13.9262 135.748 15.8808Z" fill="#111111"/>
<path d="M133.446 21.3295C134.213 22.2119 134.12 23.549 133.237 24.316L120.725 35.1924C119.843 35.9594 118.506 35.8659 117.739 34.9836L114.651 31.4313C113.884 30.5489 113.977 29.2118 114.86 28.4448L127.372 17.5684C128.254 16.8013 129.591 16.8948 130.358 17.7772L133.446 21.3295Z" fill="#A983B6"/>
<path d="M115.256 50.3416C109.807 55.7087 91.6551 57.85 63.3384 57.85C34.0686 57.85 15.2904 54.2493 12.7866 50.3418C15.2904 46.2231 35.4194 38.4347 63.3384 38.4347C91.2574 38.4347 109.807 44.7638 115.256 50.3416Z" fill="#6F362E"/>
<circle cx="45.1447" cy="102.074" r="9.70767" fill="black"/>
<circle cx="83.9757" cy="102.074" r="9.70767" fill="black"/>
<circle cx="42.449" cy="98.2983" r="1.61794" fill="white"/>
<circle cx="81.2791" cy="97.2197" r="1.61794" fill="white"/>
<circle cx="39.4823" cy="100.725" r="0.808972" fill="white"/>
<circle cx="78.3134" cy="99.6465" r="0.808972" fill="white"/>
<path d="M52.6953 116.096C57.0096 124.725 73.189 124.725 76.4252 116.096" stroke="black" stroke-width="6.35081" stroke-linecap="round"/>
<path d="M64.7822 38.3392C64.9584 33.0083 64.7822 23.2216 63.0054 17.9428" stroke="#297935" stroke-width="5.38284" stroke-linecap="round"/>
<path d="M38.4533 47.6836C38.5968 43.3453 38.4533 35.3806 37.0073 31.0845" stroke="#297935" stroke-width="4.38071" stroke-linecap="round"/>
<path d="M86.4634 42.9849C86.308 38.285 86.4634 29.6566 88.0299 25.0025" stroke="#297935" stroke-width="4.74577" stroke-linecap="round"/>
<path d="M60.389 1.79428C55.365 1.79428 54.7071 7.77522 55.0062 10.7657C50.6999 11.4834 49.0254 14.6533 48.7264 16.1485C48.0087 19.7371 52.6139 22.4285 55.0062 23.3256C54.2886 24.7611 54.7532 27.2242 55.9031 27.8113C59.417 29.6056 62.4821 27.5123 63.9774 26.0171C67.5659 28.8879 70.2573 27.8113 71.1545 26.9142C74.743 24.2228 73.5469 20.9333 72.0516 18.8399C75.6402 14.5337 75.3411 11.0647 74.743 9.86854C74.0253 7.71541 69.0612 7.77522 66.6688 8.07426C64.5156 3.05028 61.5851 1.79428 60.389 1.79428Z" fill="#A7916E"/>
<path d="M34.8781 17.9428C30.7894 17.9428 30.254 22.8103 30.4974 25.244C26.9928 25.8281 25.6301 28.4078 25.3868 29.6247C24.8027 32.5452 28.5505 34.7355 30.4974 35.4657C29.9134 36.6338 30.2916 38.6384 31.2273 39.1162C34.0871 40.5765 36.5816 38.8729 37.7984 37.656C40.7189 39.9924 42.9092 39.1162 43.6394 38.3861C46.5598 36.1958 45.5863 33.5187 44.3695 31.8151C47.29 28.3105 47.0466 25.4874 46.5598 24.5139C45.9757 22.7616 41.9358 22.8103 39.9888 23.0536C38.2365 18.965 35.8515 17.9428 34.8781 17.9428Z" fill="#A7916E"/>
<path d="M90.3371 10.7657C94.7665 10.7657 95.3465 16.0388 95.0829 18.6753C98.8795 19.3081 100.356 22.1028 100.619 23.4211C101.252 26.5849 97.192 28.9578 95.0829 29.7488C95.7155 31.0143 95.3058 33.1859 94.2921 33.7036C91.194 35.2855 88.4917 33.4399 87.1734 32.1217C84.0096 34.6527 81.6367 33.7036 80.8457 32.9126C77.6819 30.5397 78.7365 27.6395 80.0548 25.794C76.8909 21.9973 77.1546 18.939 77.6819 17.8843C78.3146 15.986 82.6913 16.0388 84.8005 16.3024C86.6988 11.873 89.2825 10.7657 90.3371 10.7657Z" fill="#A7916E"/>
<path d="M62.6011 12.56C61.2382 12.56 61.0598 14.1824 61.1409 14.9937C59.9727 15.1884 59.5185 16.0483 59.4374 16.4539C59.2427 17.4274 60.4919 18.1575 61.1409 18.4008C60.9462 18.7902 61.0723 19.4584 61.3842 19.6177C62.3374 20.1044 63.1689 19.5366 63.5745 19.131C64.548 19.9097 65.2781 19.6177 65.5215 19.3743C66.495 18.6442 66.1705 17.7519 65.7649 17.184C66.7383 16.0158 66.6572 15.0748 66.495 14.7503C66.3003 14.1662 64.9536 14.1824 64.3046 14.2636C63.7205 12.9007 62.9256 12.56 62.6011 12.56Z" fill="#FCEACC"/>
<path d="M36.6782 26.7039C35.5691 26.7039 35.4238 28.0243 35.4899 28.6845C34.5392 28.843 34.1695 29.5428 34.1035 29.8729C33.945 30.6652 34.9617 31.2593 35.4899 31.4574C35.3314 31.7743 35.434 32.3181 35.6879 32.4477C36.4637 32.8438 37.1403 32.3817 37.4704 32.0516C38.2627 32.6854 38.8569 32.4477 39.0549 32.2497C39.8472 31.6555 39.5831 30.9292 39.253 30.4671C40.0452 29.5164 39.9792 28.7506 39.8472 28.4865C39.6887 28.0111 38.5928 28.0243 38.0646 28.0904C37.5893 26.9812 36.9423 26.7039 36.6782 26.7039Z" fill="#FCEACC"/>
<path d="M88.3861 20.2566C89.5877 20.2566 89.745 21.6871 89.6735 22.4023C90.7034 22.5739 91.1039 23.3321 91.1754 23.6897C91.3471 24.548 90.2457 25.1917 89.6735 25.4062C89.8451 25.7495 89.734 26.3386 89.459 26.4791C88.6186 26.9082 87.8855 26.4075 87.5279 26.0499C86.6696 26.7365 86.0259 26.4791 85.8113 26.2645C84.9531 25.6208 85.2392 24.834 85.5968 24.3334C84.7385 23.3035 84.81 22.4738 84.9531 22.1877C85.1247 21.6728 86.312 21.6871 86.8842 21.7586C87.3991 20.557 88.1 20.2566 88.3861 20.2566Z" fill="#FCEACC"/>
<defs>
<linearGradient id="paint0_linear_334_3188" x1="64.5609" y1="76.1866" x2="65.0928" y2="137.688" gradientUnits="userSpaceOnUse">
<stop offset="0.140852" stop-color="#AF5E41"/>
<stop offset="0.398366" stop-color="#CF754E"/>
<stop offset="0.703125" stop-color="#EF8B5F"/>
</linearGradient>
</defs>
</svg>
